<?xml version="1.0" encoding="UTF-8"?>
<svg width="748.18" height="545.29" version="1.1" viewBox="0 0 748.17229 545.28116" xmlns="http://www.w3.org/2000/svg" xmlns:xlink="http://www.w3.org/1999/xlink">
 <defs>
  <linearGradient id="a">
   <stop stop-color="#1e1823" offset="0"/>
   <stop stop-color="#a794b6" offset="1"/>
  </linearGradient>
  <radialGradient id="m" cx="-380.79" cy="462.65" r="15.229" gradientTransform="matrix(1.1147 .4917 -.36439 .82611 213.58 269.48)" gradientUnits="userSpaceOnUse" xlink:href="#a"/>
  <radialGradient id="l" cx="-252.86" cy="464.86" r="17.473" gradientTransform="matrix(.97129 .016392 -.014286 .84652 .68715 78.668)" gradientUnits="userSpaceOnUse" xlink:href="#a"/>
  <filter id="ad" x="-.6006" y="-.21074" width="2.2012" height="1.4215" color-interpolation-filters="sRGB">
   <feGaussianBlur stdDeviation="7.0671394"/>
  </filter>
  <filter id="ab" x="-.27433" y="-.12107" width="1.5487" height="1.2421" color-interpolation-filters="sRGB">
   <feGaussianBlur stdDeviation="4.5079842"/>
  </filter>
  <filter id="aa" x="-.20692" y="-.11042" width="1.4138" height="1.2208" color-interpolation-filters="sRGB">
   <feGaussianBlur stdDeviation="11.812884"/>
  </filter>
  <clipPath id="k">
   <path d="m-126.8 560.13c-4.6336-85.389-31.516-216.48-101.84-246.62-33.863-35.996-115.72-27.894-163.01 7.2461-20.607 15.314-34.463 46.1-36.166 65.473-2.4736 28.135-21.608 54.906-1.6337 75.707-10.902 40.058-0.21796 85.656 19.591 126.65 19.216 39.763 76.931 137.55 132.29 113.82 124.47-66.717 150.77-75.17 150.77-142.28z" color="#000000" color-rendering="auto" fill="#e3a77d" image-rendering="auto" shape-rendering="auto" solid-color="#000000"/>
  </clipPath>
  <clipPath id="j">
   <path d="m-126.8 560.13c-4.6336-85.389-31.516-216.48-101.84-246.62-33.863-35.996-115.72-27.894-163.01 7.2461-20.607 15.314-34.463 46.1-36.166 65.473-2.4736 28.135-21.608 54.906-1.6337 75.707-10.902 40.058-0.21796 85.656 19.591 126.65 19.216 39.763 76.931 137.55 132.29 113.82 124.47-66.717 150.77-75.17 150.77-142.28z" color="#000000" color-rendering="auto" fill="#e3a77d" image-rendering="auto" shape-rendering="auto" solid-color="#000000"/>
  </clipPath>
  <filter id="w" x="-.10209" y="-.47402" width="1.2042" height="1.948" color-interpolation-filters="sRGB">
   <feGaussianBlur stdDeviation="1.7419525"/>
  </filter>
  <filter id="v" x="-.15227" y="-.1165" width="1.3045" height="1.233" color-interpolation-filters="sRGB">
   <feGaussianBlur stdDeviation="1.4391858"/>
  </filter>
  <filter id="u" x="-.062917" y="-.084148" width="1.1258" height="1.1683" color-interpolation-filters="sRGB">
   <feGaussianBlur stdDeviation="7.8170794"/>
  </filter>
  <filter id="t" x="-.05154" y="-.044915" width="1.1031" height="1.0898" color-interpolation-filters="sRGB">
   <feGaussianBlur stdDeviation="8.3767851"/>
  </filter>
  <filter id="s" x="-.26846" y="-1.1054" width="1.5369" height="3.2108" color-interpolation-filters="sRGB">
   <feGaussianBlur stdDeviation="1.5450909"/>
  </filter>
  <filter id="r" x="-.004841" y="-.0047597" width="1.0097" height="1.0095" color-interpolation-filters="sRGB">
   <feGaussianBlur stdDeviation="1.0858025"/>
  </filter>
  <filter id="q" x="-.033149" y="-.007326" width="1.0663" height="1.0147" color-interpolation-filters="sRGB">
   <feGaussianBlur stdDeviation="0.59054392"/>
  </filter>
  <filter id="p" x="-.032208" y="-.0073736" width="1.0644" height="1.0147" color-interpolation-filters="sRGB">
   <feGaussianBlur stdDeviation="0.48154086"/>
  </filter>
  <filter id="o" x="-.019181" y="-.0087312" width="1.0384" height="1.0175" color-interpolation-filters="sRGB">
   <feGaussianBlur stdDeviation="1.0075342"/>
  </filter>
  <filter id="i" x="-.4245" y="-.19157" width="1.849" height="1.3831" color-interpolation-filters="sRGB">
   <feGaussianBlur stdDeviation="11.056604"/>
  </filter>
  <filter id="f" x="-.24849" y="-.21063" width="1.497" height="1.4213" color-interpolation-filters="sRGB">
   <feGaussianBlur stdDeviation="11.285281"/>
  </filter>
  <filter id="e" x="-.24488" y="-.31619" width="1.4898" height="1.6324" color-interpolation-filters="sRGB">
   <feGaussianBlur stdDeviation="8.9770752"/>
  </filter>
  <filter id="d" x="-.097822" y="-.094245" width="1.1956" height="1.1885" color-interpolation-filters="sRGB">
   <feGaussianBlur stdDeviation="2.0415942"/>
  </filter>
  <filter id="c" x="-.10826" y="-.21499" width="1.2165" height="1.43" color-interpolation-filters="sRGB">
   <feGaussianBlur stdDeviation="3.4470897"/>
  </filter>
  <filter id="ac" x="-.087634" y="-.10613" width="1.1753" height="1.2123" color-interpolation-filters="sRGB">
   <feGaussianBlur stdDeviation="3.371562"/>
  </filter>
  <filter id="z" x="-.080386" y="-.065199" width="1.1608" height="1.1304" color-interpolation-filters="sRGB">
   <feGaussianBlur stdDeviation="3.2503375"/>
  </filter>
  <filter id="y" x="-.1545" y="-.49239" width="1.309" height="1.9848" color-interpolation-filters="sRGB">
   <feGaussianBlur stdDeviation="8.520004"/>
  </filter>
  <filter id="x" x="-.49311" y="-.28348" width="1.9862" height="1.567" color-interpolation-filters="sRGB">
   <feGaussianBlur stdDeviation="5.6362328"/>
  </filter>
  <filter id="b" x="-.6885" y="-.21185" width="2.377" height="1.4237" color-interpolation-filters="sRGB">
   <feGaussianBlur stdDeviation="2.2416001"/>
  </filter>
  <linearGradient id="n" x1="-547.31" x2="37.388" y1="533.17" y2="586.41" gradientTransform="translate(1.3057 1.7161)" gradientUnits="userSpaceOnUse">
   <stop offset="0"/>
   <stop stop-opacity="0" offset="1"/>
  </linearGradient>
  <clipPath id="h">
   <rect x="1.3057" y="1.7145" width="748.17" height="545.28" fill="#f2f2f2" stroke="#000" stroke-width=".33005"/>
  </clipPath>
  <linearGradient id="g" x1="-136.32" x2="-231.96" y1="613.24" y2="558.17" gradientTransform="translate(1.3057 1.7161)" gradientUnits="userSpaceOnUse">
   <stop stop-color="#422214" offset="0"/>
   <stop stop-color="#e3a77d" offset="1"/>
  </linearGradient>
 </defs>
 <g transform="translate(-1.3057 -1.7161)" clip-path="url(#h)">
  <g transform="translate(756.41,-259.42)">
   <rect x="-756.41" y="259.42" width="750" height="547.5" color="#000000" color-rendering="auto" fill="#000f18" image-rendering="auto" shape-rendering="auto" solid-color="#000000"/>
   <path d="m-474.22 259.42c-21.558 21.596-35.229 54.866-47.969 81.051-69.882 143.63 33.446 355.54 164.74 405.37 33.602 12.752 72.854 27.638 74.223 61.08h61.207l-11.05-32.147 50.229 32.147-11.05-38.174 52.239 38.174 4.0184-31.142 57.261 31.142h26.119l33.151-36.165 14.69 36.165v-547.5z" color="#000000" color-rendering="auto" fill="url(#n)" filter="url(#r)" image-rendering="auto" shape-rendering="auto" solid-color="#000000"/>
   <path d="m-458.36 655.6c-3.472-0.044-6.9107 0.59989-13.603 3.0068-6.6921 2.4069-75.92 101.53-76.204 148.31h303.41c-9.3446-18.414-32.486-35.635-46.123-44.727-9.4961-6.3307-13.766-18.591-24.004-25.416-18.751-12.5-44.529-14.389-64.248-27.535-28.994-19.329-54.928-53.334-79.232-53.643z" color="#000000" color-rendering="auto" fill="#a794b6" image-rendering="auto" shape-rendering="auto" solid-color="#000000" stroke="#000" stroke-linecap="round" stroke-linejoin="round" stroke-width=".25"/>
   <path d="m-126.8 560.13c-4.6336-85.389-31.516-216.48-101.84-246.62-33.863-35.996-115.72-27.894-163.01 7.2461-20.607 15.314-34.463 46.1-36.166 65.473-2.4736 28.135-21.608 54.906-1.6337 75.707-10.902 40.058-0.21796 85.656 19.591 126.65 19.216 39.763 76.931 137.55 132.29 113.82 124.47-66.717 150.77-75.17 150.77-142.28z" color="#000000" color-rendering="auto" fill="#e3a77d" image-rendering="auto" shape-rendering="auto" solid-color="#000000"/>
   <path d="m-290.8 465.03c0.26896 1.705 0.58469 3.5868 0.99844 5.2418m1.2481-6.7395c-0.56677 1.7735-0.1593 3.206 0.49922 4.7426m2.2465-8.986c-0.78184 1.6016-0.21191 3.2969 0 4.9922m1.9969-5.9907c-0.1399 1.7032 0.0869 3.3648 0.24961 4.9922m2.9953-6.9891c-0.80814 1.4556-0.43486 2.7614-0.24961 4.2434m3.7442-4.7426c-0.79723 1.2189-0.39892 2.0505-0.24961 3.245m4.493-5.7411c-1.1318 1.3166-0.99845 2.5704-0.99845 4.2434m4.7426-4.9922c-0.8709 1.4032-0.74883 2.6508-0.74883 4.2434m4.493-4.493c-0.51073 1.0317-0.76973 2.2157-0.99844 3.245m3.4946-3.245c-0.58868 0.95532-0.61677 1.9388-0.74884 2.9953m4.2434-2.7457c-1.3368 0.60304-1.3031 1.8108-1.7473 2.9953m4.2434-2.4961c-1.8865 1.0422-0.68336 1.3667-1.2481 2.4961m3.9938-1.4977c0.284 0.6645-0.35201 1.056-0.49922 1.4977m3.4946-0.49923v1.2481m3.245-0.49922 0.24961 1.2481m3.245-1.2481c-0.10869 0.94119-0.67389 1.6847-0.99844 2.4961" color="#000000" color-rendering="auto" fill="none" image-rendering="auto" shape-rendering="auto" solid-color="#000000" stroke="#000" stroke-linecap="round" stroke-linejoin="round" stroke-width=".25"/>
   <path d="m-368.05 475.63c-1.1117-23.149-27.275-35.039-49.819-17.542 0.57427 6.1415 6.063 13.843 11.652 16.843 7.9325 4.2588 30.909 3.647 37.771 0.70601" color="#000000" color-rendering="auto" fill="#e7efe8" image-rendering="auto" shape-rendering="auto" solid-color="#000000"/>
   <path d="m-394.5 449.73c-0.22395-6e-3 -0.45247 7e-3 -0.67773 6e-3a16.415 16.415 0 0 0 -4.3301 11.08 16.415 16.415 0 0 0 16.414 16.414 16.415 16.415 0 0 0 14.045 -7.959c-3.1778-11.65-13.334-19.225-25.451-19.541z" color="#000000" color-rendering="auto" fill="url(#m)" image-rendering="auto" shape-rendering="auto" solid-color="#000000"/>
   <circle cx="-382.92" cy="460.9" r="4.3948" d="m -378.52521,460.89999 c 0,2.42719 -1.96762,4.3948 -4.3948,4.3948 -2.42718,0 -4.3948,-1.96761 -4.3948,-4.3948 0,-2.42718 1.96762,-4.3948 4.3948,-4.3948 2.42718,0 4.3948,1.96762 4.3948,4.3948 z" color="#000000" color-rendering="auto" image-rendering="auto" shape-rendering="auto" solid-color="#000000"/>
   <path d="m-288.8 480.07c27.238 9.5229 53.999 2.0084 66.771-12.668-21.008-11.627-65.658-18.771-66.771 12.668z" color="#000000" color-rendering="auto" fill="#e7efe8" image-rendering="auto" shape-rendering="auto" solid-color="#000000"/>
   <path d="m-260.24 457.52c-2.24 5e-3 -4.4218 0.15314-6.5312 0.42969a17.473 17.473 0 0 0 -1.8144 7.7051 17.473 17.473 0 0 0 17.09 17.453c3.3688-0.64404 6.5977-1.5348 9.6465-2.6484a17.473 17.473 0 0 0 8.209 -14.805 17.473 17.473 0 0 0 -0.36328 -3.4609c-8.2107-2.8124-17.584-4.6947-26.236-4.6738z" color="#000000" color-rendering="auto" fill="url(#l)" image-rendering="auto" shape-rendering="auto" solid-color="#000000"/>
   <circle cx="-253.32" cy="464.5" r="4.631" d="m -248.68901,464.5 c 0,2.55763 -2.07337,4.631 -4.631,4.631 -2.55763,0 -4.631,-2.07337 -4.631,-4.631 0,-2.55763 2.07337,-4.631 4.631,-4.631 2.55763,0 4.631,2.07337 4.631,4.631 z" color="#000000" color-rendering="auto" image-rendering="auto" shape-rendering="auto" solid-color="#000000"/>
   <path d="m-297.04 626.28c-14.732-9.8213-28.4-29.656-41.935-13.229-8.5588-19.971-19.797 6.9314-29.454 12.73 20.993 48.811 85.964 35.39 96.35 9.1108-6.1717-1.0835-18.331-4.1917-24.961-8.6116z" color="#000000" color-rendering="auto" fill="#cf6563" fill-opacity=".47451" image-rendering="auto" shape-rendering="auto" solid-color="#000000"/>
   <path d="m-318.56 630.11c-8.0084 3.0813-14.237-0.27414-21.886-2.824-8.5066-2.8355-18.108 1.9007-27.192-1.8363 8.7098 5.3595 18.311 0.62324 26.818 3.4588 7.6497 2.5499 13.878 5.9053 21.886 2.824 15.626-6.0122 32.008 8.3033 46.078 3.0718-13.695 3.609-30.078-10.706-45.703-4.6943z" fill="#3a1e12" fill-rule="evenodd"/>
   <circle cx="-392.14" cy="456.66" r="1.9969" d="m -390.14311,456.66 c 0,1.10286 -0.89405,1.9969 -1.9969,1.9969 -1.10286,0 -1.9969,-0.89404 -1.9969,-1.9969 0,-1.10285 0.89404,-1.9969 1.9969,-1.9969 1.10285,0 1.9969,0.89405 1.9969,1.9969 z" color="#000000" color-rendering="auto" fill="#FFF" image-rendering="auto" shape-rendering="auto" solid-color="#000000"/>
   <circle cx="-381.66" cy="471.14" r="3.2449" d="m -378.4151,471.14001 c 0,1.79211 -1.45279,3.2449 -3.2449,3.2449 -1.79211,0 -3.2449,-1.45279 -3.2449,-3.2449 0,-1.7921 1.45279,-3.2449 3.2449,-3.2449 1.79211,0 3.2449,1.4528 3.2449,3.2449 z" color="#000000" color-rendering="auto" fill="#FFF" image-rendering="auto" shape-rendering="auto" solid-color="#000000"/>
   <circle cx="-258.22" cy="475.26" r="2.6209" d="m -255.5991,475.26001 c 0,1.44748 -1.17342,2.6209 -2.6209,2.6209 -1.44748,0 -2.6209,-1.17342 -2.6209,-2.6209 0,-1.44748 1.17342,-2.6209 2.6209,-2.6209 1.44748,0 2.6209,1.17342 2.6209,2.6209 z" color="#000000" color-rendering="auto" fill="#FFF" image-rendering="auto" shape-rendering="auto" solid-color="#000000"/>
   <circle cx="-262.22" cy="460.53" r="1.4977" d="m -260.7223,460.53 c 0,0.82716 -0.67054,1.4977 -1.4977,1.4977 -0.82716,0 -1.4977,-0.67054 -1.4977,-1.4977 0,-0.82716 0.67054,-1.4977 1.4977,-1.4977 0.82716,0 1.4977,0.67054 1.4977,1.4977 z" color="#000000" color-rendering="auto" fill="#FFF" image-rendering="auto" shape-rendering="auto" solid-color="#000000"/>
   <path d="m-423.25 451.55c0.0975 2.5683 1.8982 5.1413 3.883 6.7953m-2.9123-8.0308c-0.20577 2.4644 1.4217 5.4798 3.2653 7.0601m-1.059-7.6778c-1.548 1.5811 1.073 5.7643 2.0298 7.6778m-0.44126-8.2956c-0.16086 2.2952 0.71007 5.1788 1.8533 7.2366m-0.0883-8.2956c0.52576 1.9308 0.40431 4.071 1.5003 5.8246m0.70605-6.2658c-0.3619 1.7884 0.23548 4.1892 1.1473 5.6481m1.2355-6.0011c-0.0863 1.8478-0.40249 4.1936 0.5295 5.8246m1.6768-6.2658c-0.2586 1.4852-0.27433 3.0505 0.0882 4.5008m1.5003-4.589c-0.16439 1.3754-0.0955 2.7386 0.26475 4.0596m1.5885-4.236c-0.35502 1.3051-0.45194 2.6649 0 3.7948m2.2945-3.883c-0.20648 1.3672-0.34675 2.7859-0.1765 4.1478m3.0005-4.0596c0.0515 0.81793-0.2647 2.5541-0.2647 3.3535m3.7065-3.0888c-0.48082 0.88378-0.52951 1.9067-0.52951 2.824m4.0596-2.2063c-0.12314 0.59834-0.25769 1.9361-5e-3 2.3578m2.9172-1.3871c-2e-3 0.50947-0.21078 1.0262-0.353 1.5003" color="#000000" color-rendering="auto" fill="none" image-rendering="auto" shape-rendering="auto" solid-color="#000000" stroke="#000" stroke-linecap="round" stroke-linejoin="round" stroke-width=".25"/>
   <path d="m-422.2 457.04c7.1685-7.2153 24.964-8.7219 34.114-6.5607-10.675-2.3298-24.298 2.767-31.463 8.8976-0.94377-1.0693-1.7271-1.4362-2.6516-2.3369z" fill="#3a1e12" fill-rule="evenodd"/>
   <path d="m-426.78 454.9c9.269-14.925 39.451-9.6043 45.361-2.471-4.0076-6.7746-33.228-15.763-45.361 2.471z" fill="#27170f" fill-opacity=".84314" fill-rule="evenodd"/>
   <path d="m-295.94 470.27c20.787-35.689 52.337-16.718 76.249-7.7661-23.662-7.2044-55.213-26.175-76.249 7.7661z" fill="#301f14" fill-opacity=".85882" fill-rule="evenodd"/>
   <path d="m-357.94 575.35c6.061 9.4186 18.554 9.9013 25.835 2.6209 8.8482-6.0821 18.548-5.577 19.095 1.3729-5.217 4.4962-12.171-1.2331-15.226-1.9969-1.7372-0.24921-3.0838 0.71247-3.9626 1.5913-3.7895 3.7895-15.424 6.315-20.718 2.1217-1.2266-0.97162-5.7696-3.3239-7.6488-5.7868-4.5038-5.9027 0.67004-3.3449 2.6254 0.0769z" color="#000000" color-rendering="auto" fill="#26110a" fill-opacity=".86667" image-rendering="auto" shape-rendering="auto" solid-color="#000000"/>
   <path d="m-308.52 585.46c19.391-4.6864 16.915-19.902 9.61-37.442 8.8792 18.013 13.098 32.457-9.61 37.442z" fill="#321b10" fill-opacity=".86275" fill-rule="evenodd"/>
   <path d="m-374.54 430.72c2.2014 2.6148 3.1886 5.7 3.883 8.8251m-4.9421-7.7661c1.2402 3.1137 3.1248 5.1777 3.53 8.8251m-8.4721-12.355c3.7541 2.919 4.743 7.5854 5.2951 12.002m-9.1781-15.179c3.9126 3.716 6.3732 8.5485 7.7661 14.12m-13.061-16.238c5.0823 4.2389 8.877 10.04 10.943 16.238m-15.532-18.003c3.9638 5.8111 10.365 10.635 12.002 18.003m-17.297-21.533c3.5175 3.6895 5.9939 8.0183 8.4721 12.355m-14.473-12.355c3.4282 3.8078 7.1833 6.8078 9.1781 11.296m-13.767-13.414c4.5182 2.9634 7.744 7.1868 9.8841 12.002m-21.886-7.4131c5.004-1.0504 10.468 3.0549 13.767 6.3541-1.7528-3.5056-3.9437-6.619-7.7661-8.1191m-8.4721 2.824c4.5268 1.0599 8.5817 3.8567 12.002 6.7071m-21.533-1.412c4.1661-0.63058 7.7085 2.4422 11.296 4.236m-13.414-1.765c3.5056-0.37059 6.3695 1.4837 8.8251 3.53m2.6475-10.061c3.5955 1.9577 8.0062 4.9139 9.5311 8.4721m-1.9415-1.9415c-3.6171-2.0095-7.9913-4.7479-11.649-3.53 2.7637 0.95739 5.5892 2.2239 7.4131 4.4126m-9.3546-4.589c3.1351 0.7862 5.4932 2.8565 7.2366 5.4716m-10.061-2.824c3.1667 0.0718 6.2076 1.8639 8.1191 4.4126m-5.4716-6.3541c-0.37375-2.6526 5.9917 0.75978 7.2366 3.0005m-4.7656-5.1186c3.2927-0.46241 5.9012 1.8109 7.5896 4.7656-1.6866-2.5299-6.1163-5.7236-6.8836-5.2951m1.059-0.88251c3.2348 0.10528 6.7953 2.2355 7.7661 5.4716m-3.7065-6.8836c2.8562 1.1416 6.7071 2.6167 6.7071 6.0011-1.2168-3.042-3.9694-5.6182-7.4131-4.9421m4.0596-2.6475c2.6016 1.1845 4.2745 3.323 5.8246 5.6481-0.73742-3.3184-3.7975-4.8079-7.0601-5.2951m3.0005-0.1765c2.7024 1.0319 4.6628 3.4736 6.3541 5.6481m-5.4716-7.7661c2.7036 1.799 6.0748 5.2563 7.4131 8.8251m-4.236-9.1781c3.7116 1.1033 6.1335 4.9534 7.4131 8.4721m-6.3541-7.4131c3.7253 1.2378 7.1555 4.007 7.9426 7.9426-1.9956-3.4924-4.8289-7.2198-8.1191-9.8841m2.824 0.1765c3.7453 1.3083 7.3608 7.6811 8.1191 11.473-1.4164-3.1868-2.6839-7.6757-6.5306-8.2956m5.1186-0.70601c-1.0668-3.6443 4.0856 7.3018 5.1186 9.8841m-5.8246-9.5311c1.0883-0.34219 3.5266 6.4328 4.589 9.3546m-2.2945-9.1781c3.9543 2.4111 4.5616 7.9692 6.3541 12.002m-5.4716-12.002c1.3824-0.0497 5.1034 7.406 6.0011 11.296m-2.471-9.8841c1.9044 0.14489 4.236 6.7612 4.236 9.8841-2.7934-5.0282-5.9182-10.045-10.943-13.414m7.2366 4.236c2.9685 2.6757 4.0522 7.0872 4.9421 10.943m-5.1186-12.179c2.5281-1.311 5.423 7.457 5.8246 11.473m-3.177-9.8841c2.3761 3.2032 3.8244 6.9136 5.2951 10.59m-3.883-9.0016c3.1402 2.0644 4.1719 6.3222 4.7656 9.8841m-3.177-10.414c2.8149 2.7994 4.505 7.1862 4.942 11.12m-3.883-9.8841c3.6105 1.2256 3.8328 6.6573 4.589 10.061m0.70601-7.9426c2.955 2.2868 4.2995 6.509 4.7656 10.237m-4.942-9.1781c1.993 2.4885 3.0913 5.6787 3.3535 8.8251-0.63638-3.8183-2.0623-8.2424-4.7656-10.943m-0.70601 2.6475c3.1021-2.0438 4.8168 5.1017 5.1186 8.1191m-1.765-8.2956c2.5584 2.3436 3.5239 6.9984 3.883 10.59m-0.88251-7.9426c1.165 2.4287 1.8767 5.02 2.6475 7.5896m-1.765-6.0011c2.4169 0.64082 2.8563 4.2366 3.53 6.7071m-1.059-6.1776c1.445 1.7464 1.4849 4.4658 1.765 6.7071m-0.5295-6.7071c1.047 1.836 1.506 3.7525 1.765 5.8246m-0.52951-4.0596c1.2939 1.9452 1.6938 4.3013 1.9415 6.5306m-0.5295-5.4716c0.89062 1.3818 0.88251 2.9851 0.88251 4.5891m0.706-0.17651c-0.21962-1.757-0.37876-3.6095-1.412-5.1186 0.48049 1.0387 0.5295 1.9107 0.5295 3.0005m-59.834-9.5311c-1.2859-0.76701 4.5196 1.5191 5.8246 2.824m-5.4716-3.53c0.26309-1.3462 4.3539 1.0004 6.3541 3.0005m-5.1186-3.7065c2.252 0.96589 4.3698 2.1248 6.1776 3.7065m-4.0595-4.0596c1.4054-1.6599 4.6489 1.6384 5.6481 2.471m-3.883-3.53c2.0573 0.28982 4.1275 1.0274 5.6481 2.2945m-4.4126-3.0005c2.4218-0.5808 4.2624 1.0854 5.8246 2.6475m-4.9421-4.0595c2.3052 0.92304 4.4805 2.1006 6.3541 3.7065m-4.236-4.236c2.1292 0.87785 4.2965 2.0099 6.1776 3.3535m-3.0005-4.4126c1.9553 0.86395 3.7014 2.4421 5.4716 3.7065-1.5835-1.8474-3.2995-3.9587-5.8246-4.236m1.412 0.1765c1.9935 0.58181 3.4698 1.7986 4.7656 3.3535m-2.2945-3.883c2.2177 0.0152 3.4036 1.941 4.4126 3.7065m-2.6475-5.1186c2.5251 0.70173 4.1052 3.5474 5.4716 5.8246m-2.824-4.7656c2.2958 1.1297 3.9399 3.2786 4.236 5.6481-1.3424-3.3559-2.9437-8.0984-6.0011-9.7076m3.53 4.236c2.8074 1.4597 3.3714 4.6637 5.4716 6.5306-1.8152-3.6304-6.0727-9.4373-9.8841-9.1781m13.591 3.53c0.97451-0.6438 3.3594 3.5536 4.0595 6.3541m-7.9426-7.2366c1.5618 1.6527 2.3897 3.9014 3.177 6.0011m-4.236-5.2951c1.4338 1.8471 2.2963 4.027 3.53 6.0011-1.3855-3.8101-3.4521-7.2476-6.0011-10.414m17.65 8.6486c1.834 1.804 2.1698 4.4408 3.177 6.7071m-7.5896-9.0016c1.7377 1.9186 2.1069 4.6274 2.6475 7.0601m-3.7065-7.0601c0.26755-0.39102 2.25 5.1171 2.824 7.4131m-4.0595-8.2956c2.3607 1.4494 3.0961 4.768 3.7065 7.4131m-3.53-6.0011c2.3133 1.8046 4.0466 4.6852 5.4716 7.0601m6.1776-3.7065c1.2484 1.986 2.2809 4.6614 3.0005 7.0601m-2.2945-6.1776c1.3066 2.3017 1.801 4.9456 2.2945 7.4131m-3.53-7.4131c1.0673 2.268 2.0463 4.5776 2.2945 7.0601-0.86151-3.446-2.6582-6.5178-4.9421-9.1781m9.8841 7.2366c1.166 1.1047 1.4664 2.5664 1.765 4.0595m2.471 2.2945c-0.19246-1.7322-0.16524-3.6222-1.2355-5.2951 1.1608 0.61197 1.0481 2.5984 1.412 4.236m-0.17651-2.6475c1.0786 1.1739 1.059 2.5389 1.059 4.0595" color="#000000" color-rendering="auto" fill="none" image-rendering="auto" shape-rendering="auto" solid-color="#000000" stroke="#000" stroke-linecap="round" stroke-linejoin="round" stroke-width=".25"/>
   <path d="m-312.51 424.59c-2.6377 4.8216-0.70801 12.011 1.4977 16.974-3.6252-3.6252-7.3133-10.32-7.2387-15.226m31.95-6.7395c-6.4114 2.8448-13.558 12.599-13.978 17.223m16.974-15.476c-5.5373 0.64766-11.88 9.4324-13.479 12.231m18.471-12.98c-4.9491 2.6078-15.289 5.0596-15.975 11.233m21.217-11.482c-6.3378 1.5181-17.009 6.3838-18.471 12.231m23.963-11.981c-7.1271 1.3482-18.542 5.1583-21.467 11.981m27.707-10.733c-5.974 1.3885-12.962 3.9073-17.722 7.9876m21.467-7.738c-4.9523-0.66567-11.13 3.5758-15.226 6.9891m19.719-6.9891c-4.905 0.18583-10.659 3.3056-13.729 6.9891m20.219-5.4914c-3.2681-0.73359-8.0058 2.4032-9.4852 4.9922m20.468-2.7457c-1.8954-0.22551-3.0218 0.90662-4.493 1.7473m20.468 1.7473c-0.95053-0.0663-1.487 0.66088-2.2465 0.99844m-97.348 0.99845c2.5305 1.5836 3.5959 4.2959 4.9922 6.7395m-6.4899-2.2465c2.2194 2.2074 4.2755 4.5251 6.4899 6.7395-3.0553-4.8885-7.7325-9.6184-9.2356-15.226m13.978 0.24962c-2.501 3.2982-1.2144 7.6232-0.24961 11.482-1.0622-2.8324-2.4903-5.4164-4.7426-7.4884m7.9876-2.9953c-1.3323 3.0541-2.6309 7.3773-0.99844 10.234m-3.7442-11.482c-1.448 4.0023-0.81263 8.2954 0.49923 12.231m-8.7364-5.4914c2.8706 1.9682 3.945 5.5419 6.7395 6.7395-1.5148-2.7772-3.103-5.7896-5.7411-7.738m-3.245 3.245c2.7041 1.7798 4.4652 4.5761 6.2403 7.2387-3.6888-0.4611-9.1041-9.0401-10.983-12.98m24.212-5.7411c-3.6322 2.6213-5.4237 7.7395-6.2403 12.231-1.7062-4.55-0.013-10.691 2.9953-14.477m8.2372 1.4977c-3.8074 1.8322-9.6724 9.215-7.738 13.729-0.82009-4.5105 1.5775-13.003 6.7395-16.974m5.9907 2.2465c-4.9768 1.4046-9.6349 8.9351-10.234 13.729m16.724-13.729c-4.3813 1.9988-9.7348 7.6551-9.7348 10.983m12.73-10.733c-3.9901 1.8358-7.0777 5.6287-7.4884 9.7348m10.733-10.234c-3.5766 1.7165-8.4565 9.1827-8.4868 9.2356m16.974-10.484c-3.3306 1.0996-5.6152 4.1171-7.4884 6.7395m2.4961-5.7411c-4.1706 1.4931-7.0371 5.5588-6.7395 8.2372 2.4989-5.8307 13.339-9.9188 18.97-9.4852-3.1476 1.1692-5.6219 3.701-7.738 6.2403m12.481-4.9922c-2.2036 0.75863-3.955 2.9566-5.4914 4.493m13.729-4.493c-1.922 1.2284-3.6402 2.6209-4.9922 4.2434m0-4.2434c-2.326 1.1351-4.0132 3.5256-5.2418 5.4915 2.568-2.996 7.6369-5.2676 11.981-4.9922-1.8852 1.7523-4.1601 3.5222-4.9922 4.493m7.9876-2.9953c-1.7138 0.91975-3.1423 2.3515-4.7426 3.4946m9.7348-2.4961c-0.91376 0.22678-1.3044 0.81525-1.9969 1.2481m-2.9953 1.4977c1.7969-2.3959 4.5386-3.5538 7.9876-3.245-1.3349 0.64903-1.4625 1.5609-1.9969 2.4961m6.9891-1.9969c-1.3138 0.68461-2.2337 1.6293-3.245 2.4961 0.94938-0.94938 1.5833-2.256 3.7442-1.7473m1.7473-0.24961c-1.156 0.6588-1.0754 1.5363-1.7473 2.4961 0.98864-0.6179 2.1913-1.7433 3.7442-1.7473m1.9969 0.24961c-0.59818-0.48064-1.4367 1.6761-1.4977 1.7473 0.69328-0.31512 1.3647-1.6169 2.7457-1.248m1.9969 0.49922c-1.5944-0.35428-1.1635 1.5513-1.4977 1.9969 0.65044-0.39026 1.3397-1.5618 2.4961-1.4977-1.0328 0.61256-1.2171 1.7387-1.7473 2.4961m-23.713-6.9891c-0.61194-1.5611-3.3273 0.76821-4.7426 3.245 2.7183-1.3591 6.3463-3.188 9.7348-2.7457-2.0598 0.53439-3.6374 2.1683-4.7426 3.4946m-4.9922-3.9938c-2.4294-0.57735-4.9889 1.5781-6.9891 3.245m3.245-3.245c-2.4377-0.84415-4.1321 1.1526-5.9907 2.7457m1.9969-3.7442c-2.6916-0.17108-4.6445 2.6324-7.2387 3.7442 1.3644-1.8192 3.019-3.6484 5.2418-4.493m-4.2434 1.4977c-2.0391-0.26678-2.8591 1.1345-3.9938 2.4961m0.49922-3.4946c-2.1216 0.29448-3.168 2.4038-4.493 3.9938m-0.24962 0.74884c1.5714-2.5142 3.7941-4.6462 6.7395-5.7411-3.8837 2.0622-10.154 5.8013-12.73 9.2356m5.4914-6.9891c-3.9348-0.87069-7.3044 3.9359-9.4852 6.9891m1.9969-5.7411c-2.5399 0.68126-3.7563 3.2611-5.2418 5.2418m4.493-7.2387c-2.383-0.0884-5.1109 5.1504-7.2387 7.9876m2.7457-6.9891c-2.4998 1.1957-3.056 4.1455-3.9938 6.4899m2.4961-6.7395c-2.9071 1.6443-3.6331 5.7685-4.9922 8.4868m1.2481-8.986c-3.5548 1.7392-5.4914 7.5811-5.4914 11.233 2.028-4.5629 5.6196-10.523 10.484-11.981m-8.2372 2.7457c-3.4259 1.0814-2.9953 5.0915-2.9953 8.2372 0.68919-3.1013 1.8383-6.2953 4.2434-8.4868m-4.9922 1.4977c-1.1069 2.7929-1.2039 5.7988-1.4977 8.7364m0.24961-7.738c-1.4485 2.3002-0.99845 5.2752-0.99845 7.9876m-2.9953-5.7411c0.3275 2.2692 0.93739 4.4984 1.4977 6.7395-0.25103-2.2593-0.52521-4.5981 0.49922-6.7395m-3.7442-0.24961c0.49532 2.8877 2.0404 5.7503 3.7442 7.738 1.7196-5.7321 4.9042-13.875 10.983-17.223m-16.474 11.981c1.0327 2.0698 2.5424 3.5747 4.2434 4.9922-1.5455-2.0606-2.7299-4.3714-4.2434-6.4899m-1.4977 2.7457c1.5579 1.6573 3.2433 3.2426 4.493 4.9922-1.7082-1.4642-3.7756-2.7594-4.493-4.9922zm-2.2465 1.4977c1.9373 1.7197 4.4346 3.4459 5.9907 4.7426m-9.4852-3.7442c2.9043 0.58727 4.932 1.9165 6.4899 3.9938-1.4204-3.3142-3.0934-6.564-5.2418-9.4852m-2.4961 5.4915c1.54 2.12 3.5633 3.0297 5.9907 4.2434m-7.4884-2.4961c2.0342 1.2846 4.1762 2.4541 6.2403 3.7442m-7.738-1.4977c1.9652 1.1819 4.1508 1.817 6.2403 2.7457m-7.9876-0.99845c2.0009-0.12043 3.2474 0.62526 4.9922 1.4977-2.3364-1.3351-4.7942-2.7156-6.9891-4.493" color="#000000" color-rendering="auto" fill="none" image-rendering="auto" shape-rendering="auto" solid-color="#000000" stroke="#000" stroke-linecap="round" stroke-linejoin="round" stroke-width=".25"/>
   <path d="m-368.11 480.43c-10.157 4.4574-29.864 0.48772-36.857-2.2854 10.573 3.2491 27.76 1.5701 34.708-0.52059 0.71892 1.2317 1.4164 1.7434 2.149 2.806z" fill="#FFF" fill-rule="evenodd"/>
   <path d="m-293.03 484.29c9.5658 5.6147 29.602 3.9772 36.871 2.0409-10.881 1.9902-27.753-1.6875-34.409-4.5764-0.85805 1.1392-1.6106 1.5657-2.4625 2.5354z" fill="#FFF" fill-rule="evenodd"/>
   <path d="m-329 583.4c-1.0001 6.8246-0.45099 13.826 1.1468 20.65-1.9082 1.9826-6.8753 4.4958-9.7076 3.706-2.512-0.32423-6.8222-1.0637-7.9435-3.7058 1.8822-9.8246 3.4574-15.747 2.5598-20.476-2.432 7.4753-3.7287 14.951-4.7617 22.426 3.0869-0.87279 6.0426 0.7726 8.7324 7.0488 4.621-5.6086 9.258-6.9864 13.947-5.9824 0.11044-8.1761-1.7583-15.956-3.9736-23.667z" fill="#FFF" fill-rule="evenodd" filter="url(#v)"/>
   <path d="m-426.25 466.55c1.3242-1.3454 4.9577-1.4885 6.3541-0.44126" color="#000000" color-rendering="auto" fill="none" image-rendering="auto" shape-rendering="auto" solid-color="#000000" stroke="#000" stroke-linecap="round" stroke-linejoin="round" stroke-width=".25"/>
   <path d="m-425.28 468.93c1.3618-1.7804 3.7651-2.0665 5.7363-2.5593" color="#000000" color-rendering="auto" fill="none" image-rendering="auto" shape-rendering="auto" solid-color="#000000" stroke="#000" stroke-linecap="round" stroke-linejoin="round" stroke-width=".25"/>
   <path d="m-424.58 470.61c1.0532-2.1096 3.7139-2.2864 5.7363-2.7358" color="#000000" color-rendering="auto" fill="none" image-rendering="auto" shape-rendering="auto" solid-color="#000000" stroke="#000" stroke-linecap="round" stroke-linejoin="round" stroke-width=".25"/>
   <path d="m-423.52 472.46c0.95899-1.7911 3.1361-2.5873 5.0303-2.824" color="#000000" color-rendering="auto" fill="none" image-rendering="auto" shape-rendering="auto" solid-color="#000000" stroke="#000" stroke-linecap="round" stroke-linejoin="round" stroke-width=".25"/>
   <path d="m-421.84 474.41c1.0508-1.5049 2.5077-2.915 4.1478-3.53" color="#000000" color-rendering="auto" fill="none" image-rendering="auto" shape-rendering="auto" solid-color="#000000" stroke="#000" stroke-linecap="round" stroke-linejoin="round" stroke-width=".25"/>
   <path d="m-419.99 475.29c0.64025-1.5742 1.7941-2.6114 3.2653-3.2653" color="#000000" color-rendering="auto" fill="none" image-rendering="auto" shape-rendering="auto" solid-color="#000000" stroke="#000" stroke-linecap="round" stroke-linejoin="round" stroke-width=".25"/>
   <path d="m-417.96 477.32c0.72829-1.5019 1.8167-2.6949 3.3535-3.3535" color="#000000" color-rendering="auto" fill="none" image-rendering="auto" shape-rendering="auto" solid-color="#000000" stroke="#000" stroke-linecap="round" stroke-linejoin="round" stroke-width=".25"/>
   <path d="m-415.84 478.73c0.77426-1.1864 1.3468-2.5708 2.5593-3.177" color="#000000" color-rendering="auto" fill="none" image-rendering="auto" shape-rendering="auto" solid-color="#000000" stroke="#000" stroke-linecap="round" stroke-linejoin="round" stroke-width=".25"/>
   <path d="m-413.19 479.7c0.25342-1.1842 0.9811-2.1929 1.765-3.0888" color="#000000" color-rendering="auto" fill="none" image-rendering="auto" shape-rendering="auto" solid-color="#000000" stroke="#000" stroke-linecap="round" stroke-linejoin="round" stroke-width=".25"/>
   <path d="m-410.28 480.67c0.40764-1.1229 0.92138-2.1763 1.5885-3.177" color="#000000" color-rendering="auto" fill="none" image-rendering="auto" shape-rendering="auto" solid-color="#000000" stroke="#000" stroke-linecap="round" stroke-linejoin="round" stroke-width=".25"/>
   <path d="m-407.19 480.76c-0.11923-1.3725 0.57324-2.4832 1.412-3.4418" color="#000000" color-rendering="auto" fill="none" image-rendering="auto" shape-rendering="auto" solid-color="#000000" stroke="#000" stroke-linecap="round" stroke-linejoin="round" stroke-width=".25"/>
   <path d="m-403.13 481.64c0.0924-1.1742 0.74081-2.2451 1.3238-3.2653" color="#000000" color-rendering="auto" fill="none" image-rendering="auto" shape-rendering="auto" solid-color="#000000" stroke="#000" stroke-linecap="round" stroke-linejoin="round" stroke-width=".25"/>
   <path d="m-400.22 481.73c-0.26365-1.0054 0.12471-1.9132 0.52951-2.824" color="#000000" color-rendering="auto" fill="none" image-rendering="auto" shape-rendering="auto" solid-color="#000000" stroke="#000" stroke-linecap="round" stroke-linejoin="round" stroke-width=".25"/>
   <path d="m-397.66 481.64c-0.0509-0.81517 0.15674-1.5358 0.44126-2.2945" color="#000000" color-rendering="auto" fill="none" image-rendering="auto" shape-rendering="auto" solid-color="#000000" stroke="#000" stroke-linecap="round" stroke-linejoin="round" stroke-width=".25"/>
   <path d="m-395.36 481.73c4e-3 -0.99499 0.4823-1.8882 0.79426-2.824" color="#000000" color-rendering="auto" fill="none" image-rendering="auto" shape-rendering="auto" solid-color="#000000" stroke="#000" stroke-linecap="round" stroke-linejoin="round" stroke-width=".25"/>
   <path d="m-392.89 479.52c-0.11812 0.73257 0.0944 1.4672 0.1765 2.2063" color="#000000" color-rendering="auto" fill="none" image-rendering="auto" shape-rendering="auto" solid-color="#000000" stroke="#000" stroke-linecap="round" stroke-linejoin="round" stroke-width=".25"/>
   <path d="m-391.57 479.44c0.71434 0.82515 0.8726 1.887 1.059 2.9123" color="#000000" color-rendering="auto" fill="none" image-rendering="auto" shape-rendering="auto" solid-color="#000000" stroke="#000" stroke-linecap="round" stroke-linejoin="round" stroke-width=".25"/>
   <path d="m-389.1 479.61c0.80489 0.80755 1.195 1.9152 1.412 3.0005" color="#000000" color-rendering="auto" fill="none" image-rendering="auto" shape-rendering="auto" solid-color="#000000" stroke="#000" stroke-linecap="round" stroke-linejoin="round" stroke-width=".25"/>
   <path d="m-386.01 479.52c0.72592 0.65786 0.85587 1.5569 1.059 2.471" color="#000000" color-rendering="auto" fill="none" image-rendering="auto" shape-rendering="auto" solid-color="#000000" stroke="#000" stroke-linecap="round" stroke-linejoin="round" stroke-width=".25"/>
   <path d="m-384.51 479.44c0.89311 0.96312 0.88251 2.3665 0.88251 3.6183" color="#000000" color-rendering="auto" fill="none" image-rendering="auto" shape-rendering="auto" solid-color="#000000" stroke="#000" stroke-linecap="round" stroke-linejoin="round" stroke-width=".25"/>
   <path d="m-382.48 479.7c0.66717 0.82851 0.78925 1.9231 1.059 2.9123" color="#000000" color-rendering="auto" fill="none" image-rendering="auto" shape-rendering="auto" solid-color="#000000" stroke="#000" stroke-linecap="round" stroke-linejoin="round" stroke-width=".25"/>
   <path d="m-380.1 479c0.72898 1.1137 1.0033 2.3412 1.2355 3.6183" color="#000000" color-rendering="auto" fill="none" image-rendering="auto" shape-rendering="auto" solid-color="#000000" stroke="#000" stroke-linecap="round" stroke-linejoin="round" stroke-width=".25"/>
   <path d="m-377.1 479.35c0.80444 0.95134 1.3683 1.987 1.765 3.177" color="#000000" color-rendering="auto" fill="none" image-rendering="auto" shape-rendering="auto" solid-color="#000000" stroke="#000" stroke-linecap="round" stroke-linejoin="round" stroke-width=".25"/>
   <path d="m-373.3 478.64c0.17042 0.84167 0.0769 1.7134 0 2.5593" color="#000000" color-rendering="auto" fill="none" image-rendering="auto" shape-rendering="auto" solid-color="#000000" stroke="#000" stroke-linecap="round" stroke-linejoin="round" stroke-width=".25"/>
   <path d="m-263.71 454.31c-16.147-0.2894-31.558 12.114-32.459 27.938 1.4913-1.704 4.7002-1.7574 7.3672-2.2461 1.1591-31.092 44.979-24.344 66.195-12.908 0.1063-0.0256 0.21662-0.0459 0.32226-0.0723-10.701-6.1151-25.842-11.491-38.189-12.48-1.0789-0.13486-2.1599-0.21118-3.2363-0.23047z" fill="#26130c" fill-opacity=".85882" fill-rule="evenodd"/>
   <path d="m-288.58 482.61c-2.047 1.2564-3.2764 3.4237-3.883 5.6481" color="#000000" color-rendering="auto" fill="none" image-rendering="auto" shape-rendering="auto" solid-color="#000000" stroke="#000" stroke-linecap="round" stroke-linejoin="round" stroke-width=".25"/>
   <path d="m-286.29 484.03c-2.0703 0.37062-2.3005 2.6803-2.6475 4.589" color="#000000" color-rendering="auto" fill="none" image-rendering="auto" shape-rendering="auto" solid-color="#000000" stroke="#000" stroke-linecap="round" stroke-linejoin="round" stroke-width=".25"/>
   <path d="m-282.76 484.38c-2.1556 0.59075-1.6508 3.208-1.412 5.1186" color="#000000" color-rendering="auto" fill="none" image-rendering="auto" shape-rendering="auto" solid-color="#000000" stroke="#000" stroke-linecap="round" stroke-linejoin="round" stroke-width=".25"/>
   <path d="m-277.99 485.08c-2.0392 1.0694-2.5283 3.544-2.2945 5.6481" color="#000000" color-rendering="auto" fill="none" image-rendering="auto" shape-rendering="auto" solid-color="#000000" stroke="#000" stroke-linecap="round" stroke-linejoin="round" stroke-width=".25"/>
   <path d="m-274.28 486.5c-0.69451 1.3025-0.1486 2.4061 0.17651 3.7065" color="#000000" color-rendering="auto" fill="none" image-rendering="auto" shape-rendering="auto" solid-color="#000000" stroke="#000" stroke-linecap="round" stroke-linejoin="round" stroke-width=".25"/>
   <path d="m-270.22 486.5c-0.19749 1.2044 0.10989 2.2595 0.353 3.3535" color="#000000" color-rendering="auto" fill="none" image-rendering="auto" shape-rendering="auto" solid-color="#000000" stroke="#000" stroke-linecap="round" stroke-linejoin="round" stroke-width=".25"/>
   <path d="m-265.46 486.5c0.2017 0.93623 0.68423 1.773 1.059 2.6475" color="#000000" color-rendering="auto" fill="none" image-rendering="auto" shape-rendering="auto" solid-color="#000000" stroke="#000" stroke-linecap="round" stroke-linejoin="round" stroke-width=".25"/>
   <path d="m-260.87 485.97c0.10722 0.8778 0.25352 1.8516 0.353 2.6475" color="#000000" color-rendering="auto" fill="none" image-rendering="auto" shape-rendering="auto" solid-color="#000000" stroke="#000" stroke-linecap="round" stroke-linejoin="round" stroke-width=".25"/>
   <path d="m-258.22 486.67c0.0612 0.8058 0.57009 1.0262 0.88251 1.5885" color="#000000" color-rendering="auto" fill="none" image-rendering="auto" shape-rendering="auto" solid-color="#000000" stroke="#000" stroke-linecap="round" stroke-linejoin="round" stroke-width=".25"/>
   <path d="m-252.57 485.79c0.61963 5e-3 0.82389 0.58849 1.2355 0.88251" color="#000000" color-rendering="auto" fill="none" image-rendering="auto" shape-rendering="auto" solid-color="#000000" stroke="#000" stroke-linecap="round" stroke-linejoin="round" stroke-width=".25"/>
   <path d="m-248.34 484.73c1.1914 0.27637 1.5762 0.99325 2.118 1.9415" color="#000000" color-rendering="auto" fill="none" image-rendering="auto" shape-rendering="auto" solid-color="#000000" stroke="#000" stroke-linecap="round" stroke-linejoin="round" stroke-width=".25"/>
   <path d="m-243.04 483.5c1.0332 0.091 1.4075 0.6434 2.118 1.2355" color="#000000" color-rendering="auto" fill="none" image-rendering="auto" shape-rendering="auto" solid-color="#000000" stroke="#000" stroke-linecap="round" stroke-linejoin="round" stroke-width=".25"/>
   <path d="m-238.45 481.38c1.5617-0.50005 1.9119 0.34785 2.824 1.412" color="#000000" color-rendering="auto" fill="none" image-rendering="auto" shape-rendering="auto" solid-color="#000000" stroke="#000" stroke-linecap="round" stroke-linejoin="round" stroke-width=".25"/>
   <path d="m-296.56 290.16c-0.96676 7e-3 -1.9364 0.0248-2.9082 0.0508-0.41917 0.0112-0.83973 0.0303-1.2598 0.0449-0.61132 0.0213-1.223 0.0417-1.8359 0.0703-0.36197 0.0169-0.72538 0.0392-1.0879 0.0586-0.6363 0.034-1.2724 0.0676-1.9102 0.10937-0.37996 0.0249-0.76018 0.0544-1.1406 0.082-0.65382 0.0474-1.3078 0.0969-1.9629 0.15234-0.35968 0.0305-0.72007 0.0628-1.0801 0.0957-0.63421 0.0579-1.2692 0.1202-1.9043 0.18555-0.40275 0.0414-0.80593 0.0845-1.209 0.12891-0.62365 0.0687-1.2469 0.14093-1.8711 0.21679-0.40614 0.0494-0.81241 0.1-1.2188 0.15235-0.39041 0.0503-0.78132 0.10513-1.1719 0.1582-1.7126 0.23273-3.4257 0.48804-5.1387 0.77344-0.17445 0.0291-0.34901 0.0602-0.52344 0.0898-1.7765 0.30153-3.5517 0.62707-5.3242 0.98438-0.1498 0.0302-0.29946 0.0632-0.44922 0.0937-1.701 0.34748-3.3983 0.72106-5.0918 1.1191-0.1581 0.0372-0.3166 0.0718-0.47461 0.10937-1.6931 0.40288-3.3806 0.83634-5.0625 1.2891-0.28371 0.0764-0.56824 0.15075-0.85157 0.22852-1.624 0.4458-3.2418 0.91658-4.8516 1.4082-0.30942 0.0945-0.61891 0.18898-0.92773 0.28516-1.6368 0.50977-3.2648 1.0431-4.8828 1.5996-0.42153 0.14498-0.8416 0.29133-1.2617 0.43945-0.46278 0.16317-0.92574 0.32718-1.3867 0.49414-0.53404 0.19343-1.0661 0.39134-1.5977 0.58985-0.42664 0.15933-0.85435 0.31592-1.2793 0.47851-0.62886 0.24061-1.2539 0.48862-1.8789 0.73633-0.31504 0.12486-0.63131 0.24639-0.94532 0.37305-0.94481 0.38108-1.8853 0.76878-2.8203 1.166-0.96588 0.41033-1.9262 0.82846-2.8809 1.2559-0.22529 0.10086-0.44723 0.20679-0.67187 0.3086-0.6677 0.30259-1.3343 0.60706-1.9961 0.91796-0.39779 0.18689-0.79192 0.37849-1.1875 0.56836-0.55482 0.26632-1.1098 0.53253-1.6602 0.80469-0.34686 0.17154-0.69015 0.34764-1.0352 0.52149-0.52948 0.2668-1.059 0.53442-1.584 0.80664-0.4251 0.22041-0.84745 0.44401-1.2695 0.66796-0.48029 0.25483-0.95928 0.51211-1.4356 0.77149-0.36539 0.199-0.72883 0.3999-1.0918 0.60156-0.54839 0.30468-1.094 0.61114-1.6367 0.92188-0.32118 0.18389-0.64179 0.36867-0.96093 0.55468-0.53193 0.31003-1.0598 0.62359-1.5859 0.93946-0.34127 0.20488-0.68271 0.40985-1.0215 0.61718-0.52111 0.31893-1.0377 0.64212-1.5527 0.9668-0.32434 0.20445-0.64882 0.40851-0.9707 0.61524-0.53192 0.34162-1.0589 0.68736-1.584 1.0352-0.2897 0.1919-0.58157 0.38241-0.86914 0.57617-0.66533 0.44831-1.323 0.90309-1.9766 1.3613-0.13541 0.0949-0.27331 0.18784-0.4082 0.2832-0.81109 0.57337-1.6142 1.1536-2.4062 1.7422-5.1518 3.8285-9.882 8.6244-14.105 13.967-1.0559 1.3356-2.0791 2.7042-3.0703 4.1016-5.3e-4 7.4e-4 -1e-3 1e-3 -2e-3 2e-3 -1.4863 2.0954-2.8988 4.2537-4.2324 6.4512-0.88939 1.4655-1.7443 2.9489-2.5625 4.4434-0.81818 1.4945-1.5994 2.9994-2.3438 4.5098-2.6e-4 5.2e-4 2.6e-4 1e-3 0 2e-3 -0.12052 0.24454-0.23497 0.48961-0.35352 0.73437-0.6133 1.2664-1.2061 2.5352-1.7656 3.8027-0.33393 0.75653-0.65834 1.5128-0.97266 2.2676-0.62862 1.5095-1.2174 3.0133-1.7656 4.5059-0.2741 0.74627-0.53753 1.489-0.79102 2.2285-0.16985 0.49553-0.32976 0.98661-0.49023 1.4785-0.079 0.24225-0.1635 0.48724-0.24024 0.72852-1.8e-4 5.8e-4 1.9e-4 1e-3 0 2e-3 -0.0542 0.1705-0.10317 0.33782-0.15625 0.50781-0.62958 2.0165-1.1824 3.9997-1.6465 5.9258-0.16778 0.69635-0.32517 1.385-0.4707 2.0664-1.3e-4 6.1e-4 1.3e-4 1e-3 0 2e-3 -0.14538 0.68079-0.27951 1.3552-0.40235 2.0195-0.36884 1.9947-0.63524 3.9103-0.79492 5.7266-0.0773 0.87922-0.17116 1.7584-0.2793 2.6348-7.2e-4 6e-3 -1e-3 0.0117-2e-3 0.0176-0.10761 0.87055-0.23056 1.7399-0.36523 2.6074-0.0992 0.63866-0.21195 1.2752-0.32422 1.9121-0.0413 0.23415-0.0762 0.46924-0.11914 0.70313-3e-3 0.0176-7e-3 0.0351-0.01 0.0527-0.0443 0.2409-0.0966 0.48008-0.14258 0.72071-0.12074 0.63165-0.23974 1.2629-0.37109 1.8926-6.8e-4 3e-3 -1e-3 7e-3 -2e-3 0.01 34.009-41.112 94.709-116.84 163.85-82.271 7.2018 3.6009 20.528-1.4364 25.959 3.9941 38.674 38.674 41.888 105.74 68.893 159.75 8.299 16.598 27.305 24.712 39.488 34.848-6e-3 -0.0423-0.0119-0.0846-0.0176-0.12696-0.32797-2.4647-0.67132-4.9426-1.0332-7.4316-1.1042-7.5946-2.3676-15.29-3.8008-23.02-0.40382-2.1778-0.8288-4.3595-1.2598-6.541-0.12583-0.6367-0.25074-1.2733-0.37891-1.9102-0.40432-2.0098-0.82218-4.0197-1.25-6.0293-0.16244-0.76276-0.32828-1.5246-0.49414-2.2871-0.43541-2.0024-0.87671-4.0049-1.3359-6.0039-0.15293-0.66543-0.31315-1.3293-0.46875-1.9941-3.4917-14.926-7.6482-29.701-12.559-43.826-1.6934-4.8711-3.476-9.665-5.3496-14.361-0.90952-2.2797-1.8419-4.5343-2.7949-6.7656-0.0596-0.13949-0.11992-0.27867-0.17969-0.41797-0.95338-2.2226-1.9264-4.4223-2.9238-6.5918-0.85945-1.8695-1.7383-3.7141-2.6309-5.541-0.2107-0.43114-0.42025-0.8643-0.63281-1.293-0.36263-0.7315-0.72958-1.4555-1.0976-2.1797-0.22782-0.44809-0.45564-0.89658-0.68555-1.3418-0.36215-0.70148-0.72834-1.3996-1.0957-2.0938-0.25546-0.48262-0.51349-0.96239-0.77148-1.4414-0.35839-0.66559-0.71678-1.3298-1.0801-1.9883-0.27452-0.49748-0.55274-0.98907-0.83008-1.4824-0.35689-0.63504-0.71264-1.2723-1.0742-1.9004-7e-3 -0.0117-0.0128-0.0235-0.0195-0.0352-0.59522-1.0335-1.1967-2.0582-1.8047-3.0723-0.27706-0.46212-0.56012-0.91505-0.83985-1.373-0.38902-0.63682-0.77769-1.2737-1.1719-1.9024-0.31776-0.50689-0.63981-1.0063-0.96094-1.5078-0.38148-0.59565-0.76413-1.1894-1.1504-1.7773-0.30702-0.46739-0.61573-0.93212-0.92578-1.3945-0.42119-0.62807-0.84468-1.2504-1.2715-1.8691-0.29022-0.4208-0.58021-0.84336-0.87304-1.2598-0.45171-0.64224-0.90925-1.2746-1.3672-1.9062-0.28393-0.39168-0.56523-0.78825-0.85156-1.1758-0.71394-0.9661-1.4351-1.9196-2.1641-2.8594-0.20997-0.27071-0.42356-0.53425-0.63477-0.80273-0.5539-0.70399-1.1113-1.4034-1.6738-2.0918-0.27376-0.33505-0.55035-0.66478-0.82617-0.99609-0.50109-0.60184-1.0038-1.1978-1.5117-1.7871-0.32384-0.37578-0.64993-0.74854-0.97656-1.1191-0.48896-0.55472-0.98135-1.1036-1.4766-1.6465-0.29517-0.32363-0.58932-0.64935-0.88672-0.96875-0.62805-0.67445-1.2623-1.335-1.9004-1.9902-0.19819-0.20353-0.39265-0.41358-0.5918-0.61523-0.8194-0.82963-1.6485-1.6422-2.4844-2.4395-0.22916-0.21859-0.46294-0.42841-0.69336-0.64453-0.6171-0.57879-1.2372-1.1521-1.8633-1.7129-0.31929-0.28602-0.64126-0.56638-0.96289-0.84766-0.54892-0.48004-1.1005-0.95387-1.6562-1.4199-0.3466-0.29066-0.69369-0.58008-1.043-0.86523-0.56953-0.46496-1.144-0.91904-1.7207-1.3691-0.32352-0.25253-0.64493-0.51002-0.9707-0.75782-0.81021-0.61624-1.6289-1.2162-2.4531-1.8027-0.0776-0.0552-0.15274-0.11497-0.23047-0.16992-9e-3 -6e-3 -0.0182-0.0131-0.0273-0.0195-0.93507-0.66067-1.8808-1.3003-2.834-1.9219-0.22572-0.1472-0.45491-0.28666-0.68164-0.43164-0.7155-0.4575-1.4345-0.90669-2.1602-1.3418-0.32268-0.19347-0.64795-0.38132-0.97266-0.57031-0.66006-0.38418-1.3237-0.75955-1.9922-1.125-0.3265-0.17849-0.65392-0.35532-0.98243-0.52929-0.68519-0.36288-1.3764-0.71171-2.0703-1.0547-0.32695-0.1616-0.65156-0.3292-0.98047-0.48633-0.9903-0.4731-1.988-0.93124-2.9961-1.3633-0.50356-0.53527-1.0185-1.0584-1.543-1.5742-0.17938-0.17641-0.36508-0.34734-0.54688-0.52148-0.35785-0.3428-0.71692-0.68549-1.084-1.0195-0.20588-0.18736-0.41626-0.37006-0.625-0.55468-0.34501-0.30515-0.69222-0.60858-1.0449-0.90625-0.23749-0.20043-0.47977-0.39671-0.7207-0.59375-0.33221-0.2717-0.66526-0.54135-1.0039-0.80664-0.25921-0.20307-0.52027-0.4042-0.7832-0.60352-0.34002-0.25774-0.68315-0.51217-1.0293-0.76367-0.25377-0.18439-0.50861-0.36779-0.76563-0.54883-0.36299-0.25569-0.73023-0.50682-1.0996-0.75586-0.27027-0.18222-0.54082-0.3643-0.81446-0.54297-0.35742-0.23337-0.71896-0.46211-1.082-0.68945-0.27308-0.17099-0.54604-0.34218-0.82227-0.50977-0.39048-0.2369-0.78691-0.4691-1.1836-0.69921-0.27372-0.15879-0.54565-0.31905-0.82226-0.47461-0.50164-0.28212-1.0105-0.55657-1.5215-0.82813-0.13843-0.0736-0.273-0.15182-0.41211-0.22461-0.0128-7e-3 -0.0262-0.0128-0.0391-0.0195-0.70199-0.36683-1.412-0.72305-2.1309-1.0703-0.69853-0.33747-1.4053-0.66528-2.1191-0.98438-0.2059-0.092-0.4159-0.17902-0.62305-0.26953-0.51051-0.22308-1.0231-0.44434-1.541-0.6582-0.25873-0.10682-0.52071-0.20992-0.78125-0.31446-0.47945-0.19236-0.95983-0.38373-1.4453-0.56835-0.31186-0.1186-0.6271-0.23225-0.9414-0.34766-0.40082-0.14719-0.80232-0.29352-1.207-0.43555-0.37586-0.1319-0.75367-0.2612-1.1328-0.38867-0.40564-0.13638-0.81333-0.26907-1.2226-0.40039-0.3428-0.10997-0.68592-0.21974-1.0312-0.32617-0.44322-0.13661-0.88865-0.2696-1.3359-0.40039-0.34998-0.10234-0.70031-0.20394-1.0527-0.30274-0.4028-0.11291-0.80893-0.22178-1.2148-0.33008-0.39771-0.1061-0.79467-0.21276-1.1953-0.31445-0.52742-0.13387-1.0594-0.26047-1.5918-0.38672-0.23862-0.0566-0.47525-0.11681-0.71484-0.17187-0.62042-0.14258-1.2463-0.27779-1.873-0.41016-0.22255-0.047-0.44269-0.0969-0.66601-0.14258-2e-3 -4e-4 -4e-3 -2e-3 -6e-3 -2e-3 -0.78093-0.15982-1.5673-0.31088-2.3574-0.45508-1.4901-0.27193-2.9972-0.51165-4.5176-0.72851-0.14218-0.0203-0.28336-0.0427-0.42578-0.0625-1.4441-0.20078-2.9028-0.37351-4.3711-0.52539-0.225-0.0233-0.45024-0.0462-0.67578-0.0684-1.4424-0.14156-2.8948-0.26222-4.3574-0.35743-0.23327-0.0152-0.46742-0.027-0.70117-0.041-1.4971-0.0897-3.0024-0.15916-4.5176-0.20117-0.11884-3e-3 -0.23848-5e-3 -0.35742-8e-3 -1.6126-0.0407-3.2337-0.0594-4.8633-0.0469z" clip-path="url(#k)" color="#000000" color-rendering="auto" fill="#8e6042" filter="url(#u)" image-rendering="auto" shape-rendering="auto" solid-color="#000000"/>
   <path d="m-342.5 214.93c1.1167-4.6811 4.116-8.2354 8.3295-10.864 4.2211-2.6333 9.5898-4.2895 15.271-5.1893 11.348-1.7974 23.734-0.54248 30.147 1.6844-6.3146-2.5462-18.738-4.1641-30.289-2.6743-5.7686 0.74404-11.374 2.2706-15.901 4.8934-4.5362 2.6279-8.0587 6.4-9.4942 11.652z" color="#000000" color-rendering="auto" fill="#FFF" fill-opacity=".85882" image-rendering="auto" shape-rendering="auto" solid-color="#000000"/>
   <path d="m-354.77 461.08 10.237 79.426 14.12-80.485-12.002 5.6481z" fill="#FFF" fill-opacity=".55026" fill-rule="evenodd" filter="url(#ad)"/>
   <path d="m-321 458.79-15.975 76.88c8.6176 12.642 9.5026 8.7143 13.978 12.481 7.3268-13.264 14.031-9.1053 23.342-2.5212-18.019-41.89-15.459-61.329-21.345-86.84z" fill="#c2906d" fill-opacity=".62434" fill-rule="evenodd" filter="url(#ab)"/>
   <path d="m-135.99 483.14c-60.963 32.437-97.357 112.34-88.691 191.01 79.172-42.633 97.875-57.799 97.875-114.02-1.2621-23.258-4.1919-49.911-9.1836-76.986z" clip-path="url(#j)" color="#000000" color-rendering="auto" fill="url(#g)" filter="url(#aa)" image-rendering="auto" opacity=".702" shape-rendering="auto" solid-color="#000000"/>
   <path d="m-344.88 630.7c11.173 6.3701 23.608 6.3917 36.183 3.883 7.7784 1.0393 7.4744 0.43225-0.26475 3.3535-12.081-0.14056-23.059 1.1074-36.006-3.7948-5.3532-5.0263-3.5555-2.1421 0.0882-3.4418z" fill="#FFF" fill-rule="evenodd" filter="url(#w)" opacity=".879"/>
   <path d="m-433.49 389.77 28.946-50.48 52.598-32.123 55.775-9.1781 40.595 4.236 32.829 19.062 37.065 37.065 25.416 50.833 14.473 49.774 7.7661 46.95 1.059 71.307-6.7071 28.946-72.013 53.657-72.013 50.48 146.14 14.473c10.888-7.4512 23.451 16.549 31.782 7.7677 7.1736-7.5611 10.43-47.739 15.872-56.2 5.8841-9.1487 8.7914 37.456 12.837 27.351 7.3907-18.463 12.515-56.425 15.232-93.24 0.78826-10.679 3.8855 40.019 4.2654 30.037 0.44664-11.736-0.66721-53.774-1.5283-80.916-0.34699-10.938 9.3929 17.713 9.2467 14.572-2.9269-33.43-10.145-71.514-23.949-107.3-0.50447-1.3078 26.414 27.898-5.849-17.493-11.35-15.969-18.63-33.863-24.499-51.404-1.308-3.9093 12.372 15.996 11.174 12.147-3.5296-11.347-13.989-33.941-21.955-50.898-3.4341-7.3102 6.7369 0.63433 4.9851-3.2274-8.4432-44.261-70.816-65.078-112.34-78.807l-150.38 6.0011-77.308 86.839z" fill-opacity=".53968" fill-rule="evenodd" filter="url(#t)"/>
   <path d="m-492.14 676.8c-2.2063 1.917-4.3009 3.9589-6.2622 6.1582-1.6663 12.693 1.1592 23.718 6.6815 33.443 6.5269 11.495 16.896 21.316 28.292 30.312 22.9 18.079 51.153 33.767 66.617 53.995-14.222-21.342-41.946-38.76-63.424-57.812-10.793-9.5736-19.736-19.322-24.882-29.977-4.2539-8.8078-5.854-18.105-3.8568-28.46-1.2466-2.3043-2.3125-4.8586-3.1654-7.6591z" color="#000000" color-rendering="auto" fill-opacity=".85882" filter="url(#z)" image-rendering="auto" shape-rendering="auto" solid-color="#000000"/>
   <path d="m-377.87 259.42c-1.3439 0.52028-2.5083 1.0474-3.373 1.5781-12.183 3.2968-28.701 5.992-37.672 17.33 8.1052-3.8584 16.495-8.5911 24.109-9.543-12.02 5.5102-25.242 15.221-32.648 24.109 9.4355-6.3121 16.901-10.608 26.119-14.064-14.802 8.2509-30.111 21.265-36.668 29.133 12.134-5.2627 26.461-15.907 35.16-18.082-14.448 7.7185-32.501 21.255-38.676 35.662 10.315-10.31 26.158-19.956 34.156-26.621-12.519 10.371-28.915 26.749-32.65 41.689 13.583-18.581 33.115-36.86 47.719-45.205-9.325 6.1836-18.716 15.541-22.604 24.611 20.533-21.736 50.72-36.665 74.842-42.695-12.518-0.80604-38.472 10.906-40.686 13.562l-2.5117 0.50195c11.846-8.9634 30.43-13.829 40.938-18.332-15.253 0.62221-40.068 9.9291-47.467 17.328 10.946-12.683 35.441-17.665 48.723-23.357-12.252-2.2328-24.875 3.2032-47.719 14.316 10.802-10.664 30.217-16.011 46.211-21.348-15.522 0.5943-33.296 4.5171-44.201 12.307 4.662-5.088 14.82-9.2538 23.797-12.881h-14.898z" color="#000000" color-rendering="auto" fill="#756880" image-rendering="auto" shape-rendering="auto" solid-color="#000000"/>
   <path d="m-375.07 695.06c8.8642 6.1396 23.525 13.98 29.657 18.647-8.3764-7.7535-22.689-20.483-26.105-26.461 6.3357 2.9098 13.977 9.3843 17.581 12.964-3.5207-7.6358-9.7906-14.099-11.898-20.423 6.1215 5.491 16.531 12.035 21.133 12.609-13.952-6.9256-57.735-72.667-34.985-32.854-8.0739-7.3811-11.471-17.97-16.516-28.236-0.32861 5.4621 7.2575 18.121 7.4587 18.647-7.9786-7.4997-15.604-18.117-20.423-24.862 7.9591 15.063 21.24 30.447 29.835 42.266-15.856-13.638-31.563-30.018-41.911-46.883 4.4234 18.797 28.548 32.16 35.162 47.593-1.5508-2.069-2.7199-4.8914-4.9724-6.3932-14.035-5.4804-32.772-34.129-39.602-42.088 8.2554 18.474 23.974 31.202 23.974 34.274 0 1.0115-1.9116-0.66706-2.8414-1.0655-12.95-6.7002-24.529-20.106-31.433-31.255 2.2856 8.5672 11.334 17.216 14.917 23.264-15.116-9.2605-20.942-24.385-30.367-35.695 15.969 43.868 60.628 88.095 99.271 102.65-7.056-4.5871-15.17-13.374-17.936-16.693z" color="#000000" color-rendering="auto" fill="#a794b6" image-rendering="auto" opacity=".702" shape-rendering="auto" solid-color="#000000"/>
   <path d="m-329.96 708.2c6.6172-0.0768 17.11 0.0308 23.442 3.1966 13.873 6.9366 55.993-10.676 67.838 24.862-3.9392-3.5434-9.1195-9.8298-11.366-12.076 7.3401 9.7408 14.184 24.3 15.273 36.583-1.9868-14.244-21.462-29.122-23.442-33.742 2.1978 5.3126 9.5543 15.72 11.01 17.226-3.2162-4.839-13.228-10.59-14.562-11.543 6.0428 8.2577 13.011 15.648 14.207 25.217-2.1154-10.738-17.569-15.265-21.311-17.404 4.4478 2.0551 10.163 8.8972 11.721 10.833-7.0002-5.3671-21.368-8.709-28.769-9.4122 2.5712-1.0666 15.479 8.3651 17.404 13.497-4.807-5.5718-23.442-7.9664-23.797-8.169-9.8836-12.128-27.751-21.678-38.536-24.33-2.6733-1.3453-5.707-2.9532-8.3466-4.0845 5.0227-3.4692 15.367-1.4858 19.535-1.0655-6.0917-3.2823-11.464-3.949-16.338-6.038 4.2687-2.7616 12.675-0.80864 14.562 0-2.4508-2.2024-5.7132-1.9455-8.5242-3.5518" color="#000000" color-rendering="auto" fill="#756880" image-rendering="auto" shape-rendering="auto" solid-color="#000000"/>
   <path d="m-501.29 565.14c6.5344 34.969 14.824 71.635 32.147 92.422 1.5329-39.85-10.731-92.103-34.156-115.53-6.0882-6.0882-8.4247 15.069-9.0413 15.069-1.4445 0-9.6843-32.79-11.05-34.156-2.6833-2.6833-6.514 10.078-9.0413 5.0229-11.929-23.858-0.7356-66.16-5.0229-89.408-12.577 55.027-0.17883 110.79 11.05 155.71-0.85232-19.519-8.204-40.072-1.0046-59.271 6.3901 29.279 11.438 58.165 23.106 83.883-3.863-17.586 0.9702-37.397 3.0138-53.745z" color="#000000" color-rendering="auto" image-rendering="auto" opacity=".702" shape-rendering="auto" solid-color="#000000"/>
   <path d="m-276.76 523.45 21.096 12.557 63.289-43.7-50.732 128.59-40.183-45.709-18.083-81.874z" fill="#FFF" fill-rule="evenodd" filter="url(#f)" opacity=".353"/>
   <path d="m-377.22 337.1c-43.198 21.599 16.466 77.288 28.631 28.631 66.448 11.554 51.63-83.292-5.7764-34.909-9.1773-3.5837-16.687 3.1948-22.854 6.2787z" color="#000000" color-rendering="auto" fill="#FFF" filter="url(#e)" image-rendering="auto" opacity=".458" shape-rendering="auto" solid-color="#000000"/>
   <path transform="matrix(1.4279,0,0,1.2287,185.49,-76.031)" d="m-401.43 296.26c5.6404-5.427 15.062-9.13 20.279-12.14-7.9419 1.2745-20.347 7.6887-23.758 12.02 4.9385-7.3172 17.445-11.448 24.04-15.252-6.5494-0.40614-12.816 3.223-24.077 10.459 4.9884-6.2516 14.814-10.257 22.851-14.045-8.0846 1.2768-17.141 4.4348-22.362 9.1892 3.6733-5.1087 16.181-9.8302 19.118-12.935-4.3649 1.3779-14.051 4.4018-16.931 6.6775-6.1694 2.483-14.645 4.9205-18.633 11.411 4.0008-2.5232 8.0964-5.5219 12.022-6.4936-5.9465 3.631-12.261 9.5352-15.583 14.647 4.5443-3.8898 8.1834-6.6017 12.792-8.984-7.2317 5.2382-14.432 13-17.373 17.525 6.0215-3.5087 12.856-9.9699 17.272-11.649-7.0792 4.9376-15.684 13.144-18.018 21.066 4.7555-6.0364 12.445-12.069 16.215-16.054-5.9052 6.2052-13.465 15.796-14.489 23.845 5.951-10.567 15.033-21.347 22.155-26.622-4.4944 3.8157-8.8259 9.2966-10.295 14.284 9.3911-12.65 24.257-22.34 36.504-26.996-6.5999 0.35701-19.451 8.0996-20.445 9.6273" color="#000000" color-rendering="auto" fill="#ababab" filter="url(#d)" image-rendering="auto" opacity=".511" shape-rendering="auto" solid-color="#000000"/>
   <path d="m-373.17 693.21c7.2605 4.3543 19.149 9.7433 24.194 13.084-6.9612-5.6438-18.829-14.881-21.813-19.389 5.1134 1.9539 11.433 6.6337 14.441 9.2528-3.1509-5.8014-8.3954-10.543-10.372-15.388 5.0782 3.9872 13.57 8.5792 17.205 8.7918-11.287-4.7086-48.969-53.963-29.098-23.941-6.7051-5.3677-9.9114-13.489-14.391-21.273 0.0233 4.2962 6.6176 13.824 6.8022 14.225-6.6364-5.4655-13.157-13.392-17.279-18.429 7.0102 11.392 18.206 22.762 25.547 31.58-13.124-9.8697-26.272-21.895-35.246-34.576 4.432 14.499 24.02 23.728 29.995 35.48-1.3214-1.5412-2.3824-3.6924-4.2244-4.7531-11.278-3.572-27.43-25.054-33.191-30.938 7.4176 14.049 20.387 23.213 20.545 25.62 0.052 0.79244-1.532-0.42432-2.281-0.68874-10.49-4.5835-20.251-14.491-26.233-22.871 2.2312 6.5946 9.7653 12.905 12.883 17.459-12.319-6.4781-17.661-18.028-25.627-26.404 14.766 33.547 52.029 65.902 83.053 75.314-5.7639-3.231-12.573-9.6979-14.911-12.156z" color="#000000" color-rendering="auto" fill="#444" filter="url(#ac)" image-rendering="auto" opacity=".492" shape-rendering="auto" solid-color="#000000"/>
   <path d="m-318.94 713.49c4.8429-0.0558 12.522 0.0224 17.156 2.3395 10.153 5.0765 40.978-7.813 49.648 18.196-2.8829-2.5933-6.6741-7.194-8.318-8.8379 5.3719 7.1288 10.381 17.784 11.177 26.774-1.4541-10.425-15.707-21.313-17.156-24.694 1.6085 3.888 6.9924 11.505 8.0581 12.607-2.3538-3.5414-9.681-7.7504-10.657-8.448 4.4225 6.0434 9.5221 11.452 10.397 18.456-1.5482-7.8586-12.858-11.172-15.596-12.737 3.2552 1.5041 7.438 6.5115 8.5779 7.9281-5.1231-3.9279-15.638-6.3737-21.055-6.8884 1.8818-0.78057 11.329 6.122 12.737 9.8777-3.5181-4.0777-17.156-5.8303-17.416-5.9786-7.2334-8.8759-20.31-15.865-28.203-17.806-1.9564-0.98461-4.1768-2.1614-6.1086-2.9893 3.6759-2.539 11.247-1.0873 14.297-0.77979-4.4582-2.4022-8.3899-2.8902-11.957-4.419 3.1241-2.021 9.2765-0.59178 10.657 0-1.7936-1.6118-4.1812-1.4237-6.2384-2.5993" color="#000000" color-rendering="auto" fill="#575757" filter="url(#c)" image-rendering="auto" opacity=".561" shape-rendering="auto" solid-color="#000000"/>
   <path d="m-334.05 765.4c-1.8218 0.0934-3.4691 1.2448-4.791 3.8887-1.4345 2.869 5.0884 14.437 6.3945 17.049 2.5104 5.0209-6.485 13.052-4.2637 15.273 1.3794 1.3794 2.4408 3.2692 3.0938 5.3105h29.672c-0.51622-1.1281-1.0256-2.2115-1.5098-3.1797-2.4896-4.9793-4.1912-10.42-7.1035-15.273-2.405-4.0083-13.598-23.473-21.492-23.068zm-49.613 0.55664c-16.225-0.22244-9.38 26.104-2.248 40.965h38.48c-4.9648-13.495-11.908-31.543-21.955-36.566-6.0342-3.0171-10.712-4.3496-14.277-4.3984zm94.902 19.67c2.2574 3.9504 7.43 13.139 11.832 21.295h15.65c-2.0485-4.0555-4.4595-7.934-7.5918-10.283-5.7941-4.3456-12.903-9.5028-19.891-11.012z" color="#000000" color-rendering="auto" filter="url(#y)" image-rendering="auto" opacity=".686" shape-rendering="auto" solid-color="#000000"/>
   <path transform="matrix(1.3172,0,0,1.3172,142.83,-231.84)" d="m-488.23 764.55c0 11.651 12.671 21.599 3.516 21.599s-24.11-7.9383-24.11-19.589 11.942-28.128 21.096-28.128-0.50229 14.468-0.50229 26.119z" color="#000000" color-rendering="auto" fill="#FFF" filter="url(#x)" image-rendering="auto" opacity=".658" shape-rendering="auto" solid-color="#000000"/>
   <path d="m-432.07 463.32c-2.6046-5.3831-5.4604-8.01-8.065-19.946 14.654-30.291 73.164-1.2183 65.361 4.2732-6.6631-6.881-62.808-13.043-57.296 15.672z" fill="#ac5935" fill-rule="evenodd" filter="url(#b)" opacity=".594"/>
   <path d="m-299.47 462.32c-2.6046-5.3831-3.9535-4.494-6.5581-16.429 37.07-29.331 71.025-4.5738 71.865-1.3234-6.8835-1.0478-56.789-5.2123-65.307 17.753z" fill="#ac5935" fill-rule="evenodd" filter="url(#b)" opacity=".594"/>
  </g>
  <g transform="translate(756.41,-259.42)" shape-rendering="auto">
   <path d="m-407.86 259.42c-30.854 25.283-62.864 78.867-86.477 135.81-20.595 49.671-34.85 102.02-36.389 140.68 0.0454 0.15256 0.0931 0.30451 0.13868 0.45703 1.7263-38.649 16.274-91.076 37.174-140.75 24.439-58.083 57.493-112.2 88.754-136.2h-3.2012z" color="#000000" color-rendering="auto" fill="#a794b6" filter="url(#o)" image-rendering="auto" solid-color="#000000"/>
   <path d="m-466.91 337.87c-25.704 50.634-47.834 132.58-40.006 193.46-7.3954-60.9 15.168-142.63 41.157-192.87z" color="#000000" color-rendering="auto" fill="#a794b6" filter="url(#q)" image-rendering="auto" solid-color="#000000"/>
   <path d="m-451.85 393.66c-0.63117 1.2096-1.2451 2.4361-1.8414 3.6788-16.587 47.809-7.046 111.28 27.964 153.05-34.78-41.973-43.87-105.35-27.103-152.75 0.30628-1.334 0.63312-2.661 0.98078-3.9803z" color="#000000" color-rendering="auto" fill="#a794b6" filter="url(#p)" image-rendering="auto" solid-color="#000000"/>
   <path d="m-365.01 301.17c-36.244 29.236-75.855 85.97-89.663 141.2" color="#000000" color-rendering="auto" fill="none" image-rendering="auto" solid-color="#000000" stroke="#000" stroke-linecap="round" stroke-linejoin="round" stroke-width="2"/>
   <path d="m-269.25 287.31c11.913 44.092 37.22 80.958 59.444 120.3 22.25 39.387 41.609 81.541 41.775 136.43 0.16672-54.927-18.885-97.27-40.904-136.92-22.044-39.7-46.865-76.418-58.383-120.32z" color="#000000" color-rendering="auto" fill-opacity=".85882" image-rendering="auto" solid-color="#000000"/>
   <path d="m-274.93 287.68c-0.49388 11.241-2.1564 22.724-0.41473 33.962-1.072-11.256 1.2454-22.553 2.4093-33.815z" color="#000000" color-rendering="auto" fill-opacity=".85882" image-rendering="auto" solid-color="#000000"/>
   <path d="m-279.14 283.28c-3.6808 16.212-10.254 32.408-16.68 48.25 7.0112-15.515 14.257-31.571 18.621-47.768z" color="#000000" color-rendering="auto" fill-opacity=".85882" image-rendering="auto" solid-color="#000000"/>
   <path d="m-287.58 288.8c1.8943 4.7359 1.3769 9.3015-0.35342 13.871-1.7341 4.5794-4.6094 8.9729-7.1786 13.323 2.8169-4.1181 6.0269-8.408 8.1011-12.937 2.0807-4.5427 3.1048-9.5026 1.3111-14.939z" color="#000000" color-rendering="auto" fill-opacity=".85882" image-rendering="auto" solid-color="#000000"/>
   <path d="m-291.12 285.32c-4.1566 13.695-13.454 25.043-22.348 37.025 9.2967-11.414 19.354-22.598 24.248-36.4z" color="#000000" color-rendering="auto" fill-opacity=".85882" image-rendering="auto" solid-color="#000000"/>
   <path d="m-298.71 288.18c-9.077 11.663-19.875 24.862-29.583 36.285 10.206-10.98 21.522-23.757 31.133-35.022z" color="#000000" color-rendering="auto" fill-opacity=".85882" image-rendering="auto" solid-color="#000000"/>
   <path d="m-311.63 279.84c-2.3662 18.007-13.802 32.304-25.133 46.039 11.686-13.125 24.008-27.316 27.111-45.742z" color="#000000" color-rendering="auto" fill-opacity=".85882" image-rendering="auto" solid-color="#000000"/>
   <path d="m-322.23 283.51c0.25437 16.545-8.0918 29.523-17.356 43.071 9.6688-12.967 18.941-25.946 19.356-43.062z" color="#000000" color-rendering="auto" fill-opacity=".85882" image-rendering="auto" solid-color="#000000"/>
   <path d="m-331.41 286.43c0.79282 7.5864-1.4002 14.684-4.8308 21.594-3.4356 6.9202-8.0052 13.455-11.823 19.978 4.0611-6.2829 8.9671-12.728 12.708-19.51 3.7474-6.794 6.4402-14.117 5.9387-22.227z" color="#000000" color-rendering="auto" fill-opacity=".85882" image-rendering="auto" solid-color="#000000"/>
   <path d="m-336.06 291.29-0.9594-0.28205c-10.311 36.259-41.636 66.642-71.053 89.945 29.67-22.656 61.864-52.776 72.972-89.381l-0.9594-0.28205z" color="#000000" color-rendering="auto" fill-opacity=".85882" image-rendering="auto" solid-color="#000000"/>
   <path d="m-355.38 297.39c-1.3925 6.0971-4.9377 11.568-9.0494 17.02-4.0954 5.4305-8.6436 10.712-11.868 16.411 3.4943-5.5007 8.2854-10.556 12.649-15.79 4.3473-5.2139 8.3879-10.731 10.206-17.143z" color="#000000" color-rendering="auto" fill-opacity=".85882" image-rendering="auto" solid-color="#000000"/>
   <path d="m-247.81 298.18c13.508 33.356 24.936 74.996 32.478 111.01-6.8843-36.121-17.679-78.011-30.617-111.74z" color="#000000" color-rendering="auto" fill-opacity=".85882" image-rendering="auto" solid-color="#000000"/>
   <path d="m-234.48 306.76c11.249 58.794 48.352 120.9 66.455 180.09-17.619-59.896-53.887-121.5-64.488-180.45z" color="#000000" color-rendering="auto" fill-opacity=".85882" image-rendering="auto" solid-color="#000000"/>
   <path d="m-225.49 313.39c13.84 60.08 28.929 121.42 57.009 177.21 10.526 20.688 34.631 32.469 47.044 52.021-12.661-20.579-35.679-31.146-46.149-52.468-27.708-55.789-42.445-117.08-55.953-177.21z" color="#000000" color-rendering="auto" fill-opacity=".85882" image-rendering="auto" solid-color="#000000"/>
   <path d="m-217.78 319.08c15.257 40.067 37.56 87.183 73.051 113.41-35.02-26.661-56.673-73.958-71.27-114.07z" color="#000000" color-rendering="auto" fill-opacity=".85882" image-rendering="auto" solid-color="#000000"/>
   <path d="m-209.24 323.3c4.818 18.347 15.479 33.851 26.536 49.007 11.069 15.173 22.661 30.148 29.502 47.471-6.5457-17.484-17.879-32.667-28.693-48.053-10.826-15.404-21.006-30.856-25.407-48.915z" color="#000000" color-rendering="auto" fill-opacity=".85882" image-rendering="auto" solid-color="#000000"/>
   <path d="m-197.88 327.02c14.887 30.3 25.027 63.224 45.38 90.643-19.784-27.769-29.221-60.773-43.577-91.507z" color="#000000" color-rendering="auto" fill-opacity=".85882" image-rendering="auto" solid-color="#000000"/>
   <path d="m-200.05 333.23c9.1874 29.502 23.391 58.836 41.906 83.728-17.969-25.274-31.503-54.813-39.991-84.302z" color="#000000" color-rendering="auto" fill-opacity=".85882" image-rendering="auto" solid-color="#000000"/>
   <path d="m-207.82 321.23c9.1419 28.679 20.104 57.404 36.256 83.016-15.564-25.926-25.874-54.838-34.344-83.602z" color="#000000" color-rendering="auto" fill-opacity=".85882" image-rendering="auto" solid-color="#000000"/>
   <path d="m-219.14 310.55c12.855 62.164 56.779 125.38 101.23 174.89-44.043-50.051-87.16-113.43-99.273-175.29z" color="#000000" color-rendering="auto" fill-opacity=".85882" image-rendering="auto" solid-color="#000000"/>
   <path d="m-223.1 304.7-0.98096 0.19422c13.554 66.741 47.399 141.3 96.998 190.43-49.097-49.569-82.204-124.29-95.036-190.82l-0.98096 0.19422z" color="#000000" color-rendering="auto" fill-opacity=".85882" image-rendering="auto" solid-color="#000000"/>
   <path d="m-250.22 291.3c0.65759 20.668 4.4818 42.898 18.65 58.583-13.582-16.027-16.664-38.234-16.65-58.614z" color="#000000" color-rendering="auto" fill-opacity=".85882" image-rendering="auto" solid-color="#000000"/>
   <path d="m-255.87 293.38c-0.067 17.008 7.1403 34.494 15.826 49.444-8.1582-15.373-14.55-32.849-13.826-49.397z" color="#000000" color-rendering="auto" fill-opacity=".85882" image-rendering="auto" solid-color="#000000"/>
   <path d="m-263.63 289.88c0.40808 16.734 8.3334 32.348 15.826 46.592-6.9812-14.712-14.087-30.29-13.826-46.601z" color="#000000" color-rendering="auto" fill-opacity=".85882" image-rendering="auto" solid-color="#000000"/>
   <path d="m-271.19 286.43c-4.5192 6.071-4.2551 13.444-1.8436 20.239 2.422 6.8249 7.087 13.306 11.81 17.794-4.4996-4.7356-8.809-11.341-10.861-18.106-2.062-6.7998-1.7773-13.516 2.4713-18.697z" color="#000000" color-rendering="auto" fill-opacity=".85882" image-rendering="auto" solid-color="#000000"/>
   <path d="m-188.8 341.33c-2.61 34.716 11.088 66.699 21.545 97.718 3.6567 10.794 3.3005 22.993 2.9374 35.368-0.36183 12.333-0.72264 24.761 3.0269 35.834 12.844 38.182 42.654 75.9 58.915 113.56-16.143-37.951-45.632-75.468-58.282-113.77-3.5946-10.959-3.1333-23.246-2.6599-35.589 0.47175-12.301 0.96416-24.74-2.6719-35.823-10.325-31.327-23.61-62.917-20.816-97.14z" color="#000000" color-rendering="auto" fill-opacity=".85882" image-rendering="auto" solid-color="#000000"/>
   <path d="m-184.54 352.23c12.188 52.131 11.604 115.72 36.534 165.2 99.223 195.96-44.584-114.66 54.81 81.673-66.415-134.51 12.199 51.809-53.915-82.121-24.568-49.509-23.494-112.47-35.479-165.21z" color="#000000" color-rendering="auto" fill-opacity=".85882" image-rendering="auto" solid-color="#000000"/>
   <path d="m-212.8 328.08c2.9235 34.557 19.274 63.868 38.196 91.911 18.948 28.082 40.497 54.933 54.126 84.716 11.2 24.235 15.919 51.919 23.753 77.454-7.4818-25.518-11.921-53.438-22.843-77.868-13.532-29.972-35.054-57.066-53.797-85.143-18.768-28.116-34.728-57.178-37.443-91.234z" color="#000000" color-rendering="auto" fill-opacity=".85882" image-rendering="auto" solid-color="#000000"/>
   <path d="m-171.15 366.78c-4.146 85.291 34.199 179.56 68.069 257.75-33.335-78.629-70.862-172.81-66.072-257.64z" color="#000000" color-rendering="auto" fill-opacity=".85882" image-rendering="auto" solid-color="#000000"/>
   <path d="m-160.41 383.25c-6.1084 10.07-5.0653 21.915-2.1014 33.659 3.0205 11.967 7.8964 23.504 10.066 34.066 5.7115 27.987 1.8968 58.861 5.2645 88.157 4.1714 36.539 21.952 72.349 29.984 107.98-7.8512-35.844-25.37-71.486-29.321-108.06-3.0914-28.822 0.85498-60.409-4.6196-88.345-2.0287-10.422-6.9691-22.719-9.7559-34.205-2.8399-11.704-3.5827-22.905 2.1887-32.213z" color="#000000" color-rendering="auto" fill-opacity=".85882" image-rendering="auto" solid-color="#000000"/>
   <path d="m-151.18 407.88c-2.5992 3.5469-4.2659 9.9488-5.2673 18.228-1.009 8.3418-1.3633 18.795-1.1989 30.619 0.32887 23.653 2.7355 52.89 6.1884 81.886 3.4534 29 7.9553 57.775 12.479 80.505 2.2617 11.365 4.5288 21.22 6.673 28.836 2.1445 7.6172 4.1653 12.993 5.9315 15.394-1.6908-2.4387-3.6299-7.8337-5.6905-15.46-2.0611-7.6284-4.2449-17.492-6.4232-28.865-4.3567-22.747-8.6908-51.528-11.976-80.525-3.2857-29.001-5.5204-58.201-5.6818-81.786-0.0808-11.795 0.35728-22.162 1.4353-30.385 1.0859-8.2833 2.7998-14.198 5.1332-17.249z" color="#000000" color-rendering="auto" fill-opacity=".85882" image-rendering="auto" solid-color="#000000"/>
   <path d="m-137.88 442.67c-4.3565 9.9018-9.1004 21.196-7.5164 32.971 1.1602 8.8346 5.5316 16.032 9.8895 23.019 4.3739 7.0129 8.7781 13.875 10.211 22.137 4.7133 27.942-2.1043 51.158-7.1999 76.22-5.093 25.05-8.4284 51.825 3.2926 86.813-11.612-35.011-8.1592-61.76-2.9661-86.745 5.1904-24.972 12.157-48.301 7.531-76.397-1.352-8.4499-5.7461-15.494-10.017-22.551-4.2868-7.0838-8.4071-14.121-9.4185-22.661-1.3045-11.331 3.4573-22.172 8.0157-31.982z" color="#000000" color-rendering="auto" fill-opacity=".85882" image-rendering="auto" solid-color="#000000"/>
   <path d="m-127.16 480.58c-14.252 18.129-16.312 42.12-16.261 66.87 0.0511 24.849 2.2345 50.598-3.2084 72.713-5.2506 21.688-17.45 38.48-19.989 60.132 2.8851-21.733 15.294-37.917 20.959-59.889 5.6485-22.251 3.6228-48.249 3.7382-72.954 0.11584-24.803 2.3936-48.17 16.329-65.63z" color="#000000" color-rendering="auto" fill-opacity=".85882" image-rendering="auto" solid-color="#000000"/>
   <path d="m-122.86 503.81c-5.1282 5.4568-8.4184 16.21-10.676 29.51-2.2726 13.387-3.5423 29.643-4.4438 46.361-1.8034 33.443-2.1414 68.87-6.0449 87.203 4.2393-18.308 4.9076-53.731 7.0432-87.144 1.068-16.71 2.5009-32.887 4.9228-46.16 2.4371-13.357 5.8322-23.501 10.641-28.385z" color="#000000" color-rendering="auto" fill-opacity=".85882" image-rendering="auto" solid-color="#000000"/>
   <path d="m-127.82 493.24c-6.5566 7.4013-9.4865 18.766-10.249 32.041-0.76454 13.314 0.64292 28.754 2.9642 44.476 4.6472 31.477 12.967 64.184 15.088 83.71-1.7876-19.55-9.7935-52.42-14.098-83.851-2.1542-15.732-3.379-31.08-2.4572-44.24 0.92451-13.2 3.9973-23.996 10.238-30.798z" color="#000000" color-rendering="auto" fill-opacity=".85882" image-rendering="auto" solid-color="#000000"/>
   <path d="m-139.79 430.37-0.90938-0.41596c-4.2525 9.4945-5.1378 26.701-3.9197 47.56 1.2224 20.933 4.5832 45.767 8.9934 70.653 4.411 24.89 9.8746 49.848 15.308 71.033 5.4332 21.186 10.836 38.597 15.123 48.388-4.1302-9.8486-9.37-27.3-14.638-48.511-5.2682-21.213-10.565-46.188-14.807-71.082-4.2431-24.898-7.4291-49.698-8.4809-70.564-1.0553-20.936 0.056-37.701 4.2407-46.647l-0.90938-0.41596z" color="#000000" color-rendering="auto" fill-opacity=".85882" image-rendering="auto" solid-color="#000000"/>
   <path d="m-145.47 415.57c-5.6693 6.2004-7.8602 13.961-7.9264 22.44-0.0661 8.4652 1.9836 17.727 4.8829 27.042 5.8374 18.755 15.044 37.623 18.115 51.555 4.5507 20.426 3.9661 40.739 8.255 61.318-3.8138-19.903-3.1771-41.613-7.2772-61.527-2.9075-13.963-12.086-33.323-17.659-51.785-2.8045-9.2904-4.7133-18.377-4.5671-26.58 0.14593-8.1901 2.3375-15.418 7.6458-21.105z" color="#000000" color-rendering="auto" fill-opacity=".85882" image-rendering="auto" solid-color="#000000"/>
   <path d="m-161.22 380.54c14.366 45.259 11.006 105.72 27.077 152.91-16.246-49.817-10.524-105.09-25.167-153.5z" color="#000000" color-rendering="auto" fill-opacity=".85882" image-rendering="auto" solid-color="#000000"/>
   <path d="m-165.5 363.26c-1.365 38.95 20.045 83.728 31.585 121.62 6.2527 20.265 0.24687 42.141 11.069 61.279-10.607-19.437-4.0204-40.681-10.111-61.566-11.35-38.415-32.227-82.692-30.544-121.25z" color="#000000" color-rendering="auto" fill-opacity=".85882" image-rendering="auto" solid-color="#000000"/>
   <path d="m-176.77 352.21c18.799 87.467 64.892 175.67 65.225 269.49 0.33335-93.833-45.198-182.66-63.268-269.9z" color="#000000" color-rendering="auto" fill-opacity=".85882" image-rendering="auto" solid-color="#000000"/>
   <path d="m-190.7 327.71c-1.9565 0.17903-3.7634 1.21-5.3 2.6492-1.5417 1.444-2.8724 3.3541-3.8844 5.4441-2.0067 4.1442-2.8545 9.2141-1.3156 12.95 1.1469 2.7531 3.4219 3.7581 5.5135 4.5558 2.1393 0.81587 4.1257 1.4372 5.357 3.2091 12.284 18.275 24.035 46.007 31.952 66.881 9.6988 25.745 19.278 61.615 25.821 97.903 6.5417 36.286 10.046 72.987 7.5959 100.4 2.5335-27.408-0.88743-64.126-7.3498-100.44-6.4619-36.313-15.965-72.227-25.598-98.035-7.7564-20.921-19.38-48.798-31.588-67.26-1.388-2.1572-3.7151-2.9616-5.7222-3.814-2.0587-0.87433-3.7634-1.7828-4.5876-3.9533-1.2346-3.1999-0.47337-7.7455 1.491-11.616 0.97305-1.9174 2.2172-3.6156 3.5869-4.8447 1.3753-1.234 2.8153-1.9416 4.1904-2.0319z" color="#000000" color-rendering="auto" fill-opacity=".85882" image-rendering="auto" solid-color="#000000"/>
   <path d="m-206.15 318.11-0.99731-0.0734c-1.0686 19.066 3.3348 37.263 9.4694 56.554-5.5219-19.569-9.1855-37.7-7.4748-56.407l-0.99731-0.0734z" color="#000000" color-rendering="auto" fill-opacity=".85882" image-rendering="auto" solid-color="#000000"/>
   <path d="m-219.14 308.75c-2.429 13.757 3.3903 23.993 9.608 33.765 6.231 9.7924 13.095 19.414 13.261 32.08 0.16719-12.744-6.4372-22.596-12.41-32.604-5.9867-10.032-11.111-19.914-8.4941-32.869z" color="#000000" color-rendering="auto" fill-opacity=".85882" image-rendering="auto" solid-color="#000000"/>
   <path d="m-236.01 301.58c6.776 14.075 12.43 28.468 14.324 44.064-1.2358-15.714-6.2718-30.403-12.504-44.893z" color="#000000" color-rendering="auto" fill-opacity=".85882" image-rendering="auto" solid-color="#000000"/>
   <path d="m-247.81 294.82-0.77342 0.63389c9.5865 11.17 16.28 25.147 19.836 39.609-2.8996-14.583-9.005-29.024-18.289-40.876l-0.77342 0.63389z" color="#000000" color-rendering="auto" fill-opacity=".85882" image-rendering="auto" solid-color="#000000"/>
   <path d="m-250.22 289.16c0.28178 9.8449 6.0575 20.576 7.3541 30.362-0.73695-10.883-5.7408-20.165-5.3541-30.355z" color="#000000" color-rendering="auto" fill-opacity=".85882" image-rendering="auto" solid-color="#000000"/>
   <path d="m-256.56 292.15c2.0594 10.897 4.488 22.163 6.6358 33.026-1.4962-11.008-3.2594-22.338-4.6603-33.339z" color="#000000" color-rendering="auto" fill-opacity=".85882" image-rendering="auto" solid-color="#000000"/>
   <path d="m-259.39 287.17c1.3714 8.477 3.9298 16.959 5.9346 25.295-1.3719-8.5694-3.2488-17.053-3.9495-25.538z" color="#000000" color-rendering="auto" fill-opacity=".85882" image-rendering="auto" solid-color="#000000"/>
   <path d="m-261.52 289.85c0.1672 7.1683-0.0393 14.562 0.29372 21.909 0.33369-7.3614 1.2045-14.629 1.7057-21.863z" color="#000000" color-rendering="auto" fill-opacity=".85882" image-rendering="auto" solid-color="#000000"/>
   <path d="m-265.69 283.88c-2.2226 7.0254-2.2804 14.463-2.5911 21.524 0.98811-7.149 1.7068-14.277 4.469-20.836z" color="#000000" color-rendering="auto" fill-opacity=".85882" image-rendering="auto" solid-color="#000000"/>
   <path d="m-272.08 284.71c-1.042 6.0236-2.5791 11.753-3.2614 17.874 1.3398-6.0117 3.4919-11.434 5.2107-17.426z" color="#000000" color-rendering="auto" fill-opacity=".85882" image-rendering="auto" solid-color="#000000"/>
   <path d="m-275.54 285.92c-3.3918 8.0184-5.0889 16.681-6.8606 25.135 2.4415-8.3842 4.7535-16.716 8.6716-24.286z" color="#000000" color-rendering="auto" fill-opacity=".85882" image-rendering="auto" solid-color="#000000"/>
   <path d="m-279.74 286.55c-3.5179 6.7899-5.6043 14.282-6.1931 21.679 1.2508-7.3183 3.9659-14.459 7.9271-20.682z" color="#000000" color-rendering="auto" fill-opacity=".85882" image-rendering="auto" solid-color="#000000"/>
   <path d="m-295.7 287.65c-7.2946 5.7241-10.524 15.242-14.237 23.4 4.4609-8.1627 8.1134-16.881 15.415-21.784z" color="#000000" color-rendering="auto" fill-opacity=".85882" image-rendering="auto" solid-color="#000000"/>
   <path d="m-309.3 288.53c-6.3258 8.1486-9.9013 18.419-14.056 27.466 4.8476-8.9418 8.9034-18.644 15.596-26.19z" color="#000000" color-rendering="auto" fill-opacity=".85882" image-rendering="auto" solid-color="#000000"/>
   <path d="m-317.88 286.59c-4.0455 8.4926-5.3232 18.878-8.2908 27.995 3.7212-9.2396 5.4645-18.958 10.065-27.073z" color="#000000" color-rendering="auto" fill-opacity=".85882" image-rendering="auto" solid-color="#000000"/>
   <path d="m-291.74 287.95c-2.1908 4.3498-3.7002 8.8946-5.4934 13.217 2.4446-4.1338 4.4838-8.2467 7.2147-12.199z" color="#000000" color-rendering="auto" fill-opacity=".85882" image-rendering="auto" solid-color="#000000"/>
   <path d="m-334.83 288.71c-4.2504 8.987-9.5955 17.319-14.643 25.874 5.5672-8.1301 11.536-16.195 16.421-24.959z" color="#000000" color-rendering="auto" fill-opacity=".85882" image-rendering="auto" solid-color="#000000"/>
   <path d="m-339.04 294.3c-5.0639 9.1746-10.724 17.988-16.791 26.633 6.5945-8.2374 12.832-16.709 18.51-25.611z" color="#000000" color-rendering="auto" fill-opacity=".85882" image-rendering="auto" solid-color="#000000"/>
   <path d="m-344.78 295.22c-2.9727 10.65-8.2115 19.774-15.284 28.538 7.5543-8.302 13.493-17.2 17.193-27.943z" color="#000000" color-rendering="auto" fill-opacity=".85882" image-rendering="auto" solid-color="#000000"/>
   <path d="m-349.69 297.26c-4.0881 10.917-9.5255 21.072-16.018 30.736 7.0281-9.2661 13.102-19.16 17.87-29.981z" color="#000000" color-rendering="auto" fill-opacity=".85882" image-rendering="auto" solid-color="#000000"/>
   <path d="m-357.73 300.28c-5.041 8.5424-11.89 23.247-17.865 31.248 6.5302-7.6274 14.029-22.116 19.553-30.175z" color="#000000" color-rendering="auto" fill-opacity=".85882" image-rendering="auto" solid-color="#000000"/>
   <path d="m-363.59 302.93-0.61265-0.40476c-6.8052 10.743-15.577 28.018-20.568 39.588 5.4407-11.378 14.63-28.382 21.793-38.779l-0.61265-0.40476z" color="#000000" color-rendering="auto" fill-opacity=".85882" image-rendering="auto" solid-color="#000000"/>
   <path d="m-370.61 304.34c-7.6187 12.496-12.177 30.372-16.985 44.136 5.5102-13.738 10.604-31.099 18.669-43.056z" color="#000000" color-rendering="auto" fill-opacity=".85882" image-rendering="auto" solid-color="#000000"/>
   <path d="m-375.8 304.28c-8.9176 20.301-15.556 41.894-23.801 62.545 8.9229-20.545 16.093-41.682 25.62-61.713z" color="#000000" color-rendering="auto" fill-opacity=".85882" image-rendering="auto" solid-color="#000000"/>
   <path d="m-389.96 316.38c-6.2189 19.624-11.966 39.522-20.938 58.21 9.5871-18.428 15.981-38.155 22.835-57.575z" color="#000000" color-rendering="auto" fill-opacity=".85882" image-rendering="auto" solid-color="#000000"/>
   <path d="m-396.94 323.27c-9.8342 18.25-16.825 39.261-22.426 59.087 6.2537-19.684 13.845-40.347 24.171-58.11z" color="#000000" color-rendering="auto" fill-opacity=".85882" image-rendering="auto" solid-color="#000000"/>
   <path d="m-401.97 318.55c-6.8031 25.226-16.462 50.077-24.454 75.11 8.5901-24.718 18.925-49.487 26.378-74.564z" color="#000000" color-rendering="auto" fill-opacity=".85882" image-rendering="auto" solid-color="#000000"/>
   <path d="m-413.26 332.64c-8.856 29.176-19.535 58.86-27.287 88.552 8.3941-29.512 19.683-58.914 29.194-87.95z" color="#000000" color-rendering="auto" fill-opacity=".85882" image-rendering="auto" solid-color="#000000"/>
   <path d="m-438.71 465.49c-3.6225 20.246 3.1999 37.986 12.269 54.916 9.1039 16.994 20.463 33.179 26.364 50.617 7.3424 21.499 10.184 46.072 15.301 68.325-4.7686-22.225-7.3116-46.994-14.352-68.641-5.7802-17.603-17.127-34.112-25.988-51.004-8.8948-16.956-15.294-34.291-11.627-53.853z" color="#000000" color-rendering="auto" fill-opacity=".85882" image-rendering="auto" solid-color="#000000"/>
   <ellipse cx="-327.21" cy="627.32" rx="10.991" ry="1.6773" d="m -316.21899,627.32001 c 0,0.92634 -4.92084,1.6773 -10.991,1.6773 -6.07016,0 -10.991,-0.75096 -10.991,-1.6773 0,-0.92635 4.92084,-1.6773 10.991,-1.6773 6.07016,0 10.991,0.75095 10.991,1.6773 z" color="#000000" color-rendering="auto" fill="#3d2015" filter="url(#s)" image-rendering="auto" opacity=".603" solid-color="#000000"/>
   <path d="m-470.06 387.94c-21.178 50.931-18.587 125.34 10.967 166.15-28.98-41.146-30.674-115.27-9.1248-165.37z" color="#000000" color-rendering="auto" fill="#a794b6" image-rendering="auto" opacity=".702" solid-color="#000000"/>
   <path d="m-418.91 353.17c-1.219 2.0991-4.9788 9.0854-2.5115 11.553 0.44217 0.44217 15.239-26.963 16.576-29.635 3.3286-6.6571-2.1863 4.3435-1.0046 5.5252 0.32856 0.32856 10.231-13.931 11.553-16.576 1.9597-3.9195 6.6105-5.8975 9.0413-9.5436 5.2537-7.8805 2.3836 5.1508 3.0138 4.5206 15.006-15.006 5.0293-5.5252 8.539-5.5252 3.3597 0 12.68-12.68 15.069-15.069 2.1831-2.1831 0.66082 8.4597 2.5115 7.5344 14.228-7.1141 13.751-10.643 28.631-18.083 1.0426-0.52133-2.0883 10.085 2.0092 8.0367 4.294-2.147 6.6603-7.3485 11.05-9.5436 2.494-1.247-1.6498 8.9215 2.5115 7.5344 2.6171-0.87236 13.863-11.754 16.576-9.0413 0.70592 0.70592-1.1989 6.3356 0.50229 8.0367 1.6434 1.6434 7.4783-5.079 8.539-4.0183 1.4705 1.4705-1.7478 6.4495 1.5069 7.5344 6.4222 2.1407 8.96-6.5298 13.562-6.5298 1.9824 0 3.1862 9.1512 6.5298 8.0367 1.7427-0.58091 9.5405-7.0352 11.05-5.5252 1.5496 1.5496-2.6927 7.6414 1.5069 9.0413 10.511 3.5036 8.4323-9.828 13.06 2.5115 1.4266 14.454 11.185 6.6644 11.553 7.0321 1.3029 1.3029-0.50482 5.5227 1.0046 7.0321 2.2771 2.2771 3.2853-0.73306 10.046 6.0275 1.5679 1.5679 5.7408-2.2959 6.5298-1.5069 1.6447 1.6447-1.9437 8.8229 0.5023 10.046 0.43542 0.21771 7.0321-7.7973 7.0321-7.5344 0 4.1833 8.6866 21.244 10.046 22.603 1.3476 1.3476 5.3822-5.6682 7.0321-4.0183 1.9282 1.9282-2.4039 9.7588-1.0046 12.557 1.3145 2.629 6.2545-5.8006 6.5298-5.5252 4.4975 4.4975 8.1546 26.181 8.0367 27.124 2.8836 1.5351 5.1668-2.5115 7.5344-2.5115 5.2946 0-10.318 15.069-5.0229 15.069 3.4517 0 9.5436-7.47 9.5436-4.0184 0 2.7959-6.4318 11.149-3.516 14.064 0.21047 0.21047 8.5946-4.6318 7.0321-1.5069-2.7328 5.4655-9.1244 18.083-3.0138 18.083 1.7658 0 7.1778-10.402 9.0413-8.539 2.9157 2.9157-6.5872 18.527-4.0184 21.096 0.63268 0.63267 5.4382-5.0229 7.0321-5.0229 4.2348 0-5.6604 18.015-0.50229 20.594 1.1622 0.5811 4.3974-8.539 6.0275-8.539 4.2687 0-0.60246 8.7393-2.5115 12.557-0.43461 0.86921 0.32261 13.06 0 13.06-4.0875 0 2.9446-10.046 7.0321-10.046 1.4305 0-1.0545 2.6612-1.5069 4.0184-0.87983 2.6395-3.5204 28.128-1.0046 28.128 4.5082 0 7.0321-16.061 7.0321-11.553 0 2.3759-6.0932 32.147-1.0046 32.147 4.0531 0 7.5344-13.597 7.5344-9.5436 0 9.14-5.5252 22.451-5.5252 33.151 0 3.6873 8.6811-11.837 7.0321-8.539-1.9672 3.9344-9.0469 22.598-4.5206 27.124 1.5074 1.5074 4.7874-5.9097 6.0275-6.5298 24.247-12.124 1.0046-80.131 1.0046-101.97 0-51.607-42.436-105.57-73.335-142.65-9.4351-15.303-38.099-9.0262-55.755-12.557-73.287-14.657-143.64 6.1539-168.27 71.828" color="#000000" color-rendering="auto" image-rendering="auto" solid-color="#000000"/>
   <path d="m-470.51 647.73c2.7342 9.2775 9.2816 19.941 17.05 29.715 7.7886 9.7996 16.876 18.795 24.759 24.716-7.6777-6.1827-16.485-15.381-23.964-25.326-7.4974-9.9697-13.597-20.606-15.917-29.637z" color="#000000" color-rendering="auto" image-rendering="auto" solid-color="#000000"/>
   <path d="m-463 650.69c9.0311 20.418 24.549 43.89 43.186 56.792-18.195-13.405-33.039-37.157-41.345-57.574z" color="#000000" color-rendering="auto" image-rendering="auto" solid-color="#000000"/>
   <path d="m-454.8 655.38c11.962 22.536 30.869 40.291 50.259 56.016-19.042-16.303-37.268-34.395-48.48-56.93z" color="#000000" color-rendering="auto" image-rendering="auto" solid-color="#000000"/>
   <path d="m-442.08 659.49c3.7012 11.189 12.836 19.569 22.5 27.254 9.7336 7.7405 20.092 14.843 26.71 23.528 4.6581 5.9326 9.5279 12.971 14.962 18.169-5.1818-5.4171-9.7585-12.62-14.162-18.769-6.5954-8.9324-17.039-16.306-26.569-24.096-9.5979-7.846-18.187-16.051-21.539-26.701z" color="#000000" color-rendering="auto" image-rendering="auto" solid-color="#000000"/>
   <path d="m-448.16 655.34c0.45494 6.1554 4.6382 10.413 9.0278 14.235 4.4692 3.8911 9.2859 7.4346 11.768 12.212 12.626 25.065 34.551 35.364 58.451 43.336 23.916 7.9771 49.956 13.662 71.056 29.383-21.021-15.87-47.045-21.725-70.896-29.857-23.867-8.1367-45.411-18.513-57.717-43.31-2.456-5.0975-7.4152-8.9664-11.662-12.882-4.3262-3.9889-7.7954-7.9284-8.0323-13.238z" color="#000000" color-rendering="auto" image-rendering="auto" solid-color="#000000"/>
   <path d="m-446.46 686.53c-7.5116-10.169-13.885-23.928-16.338-33.742 4.9675 13.406 21.333 24.609 27.348 33.031-9.732-9.2965-18.876-26.035-20.067-35.695 7.861 11.557 22.732 25.958 31.433 33.209-7.0956-8.1468-15.006-23.176-17.404-30.012 6.0322 9.1062 14.549 17.866 22.376 24.152-15.84-17.39-38.784-70.934-50.257-23.619 2.2849 11.466 14.513 27.428 22.909 32.676z" color="#000000" color-rendering="auto" image-rendering="auto" solid-color="#000000"/>
   <path d="m-386.26 303.52c-5.4852 3.5292-7.735 9.6547-7.9224 17.638-0.18729 7.9778 1.6784 18.044 4.7012 29.785 6.1608 23.93 16.722 53.631 25.616 88.771 17.57 69.42 27.268 155.76-24.701 236.16 52.286-80.275 42.964-166.72 25.671-236.41-8.4255-33.952-19.481-66.303-25.132-88.897-2.9391-11.75-4.6693-21.641-4.4059-29.366 0.26328-7.7214 2.509-13.044 7.2444-15.999z" color="#000000" color-rendering="auto" image-rendering="auto" solid-color="#000000"/>
   <path d="m-414.64 679.41c2.6852 4.0799 5.4234 6.6656 7.7856 10.799-1.1732-3.164-1.6855-6.2008-2.0092-8.7901 5.65 3.9464 6.7506 12.025 10.297 15.571 0.27227-2.0102-0.46535-5.3774-0.75344-6.5298 3.9283 4.3519 6.8644 10.569 9.2924 14.818-0.42034-2.1607-0.51351-4.6821-0.25115-6.781m0-1.2557c1.4252 5.6393 7.006 9.5607 9.2924 13.562 0.60435-2.1997-0.48257-7.1254-0.50229-7.2833 3.7493 4.3956 7.0973 9.9662 10.799 11.553 0.49584-1.7016-0.78668-4.2633-1.0046-5.3997 2.4102 3.6487 9.4467 9.0039 12.808 10.925-1.5397-1.5214-2.0976-3.9736-2.7626-5.5252 3.5382 1.6289 8.0876 5.4753 10.548 6.5298 1.2917 2.3008 3.1235 3.7749 4.0184 4.5206-0.33262-2.5679-1.8653-5.5601-2.5115-7.9111 3.5162 4.325 10.033 7.7583 13.06 9.9203-4.6055-4.3554-6.7253-9.9902-10.046-13.311-4.1437-4.1437-24.029-3.6864-28.882-8.539-7.1057-7.1057-29.49-27.375-40.183-27.375" color="#000000" color-rendering="auto" image-rendering="auto" solid-color="#000000"/>
  </g>
  <path d="m325.93 246.68 29.124 14.207 33.386-30.545-12.786 56.118 7.8139 53.276-13.497 29.124-24.152-55.407z" fill="#FFF" fill-rule="evenodd" filter="url(#i)" opacity=".419" stroke="#000" stroke-width="1px"/>
 </g>
</svg>
